<?xml version="1.0" standalone="no"?>
<!DOCTYPE svg PUBLIC "-//W3C//DTD SVG 20010904//EN"
 "http://www.w3.org/TR/2001/REC-SVG-20010904/DTD/svg10.dtd">
<svg version="1.0" xmlns="http://www.w3.org/2000/svg"
 width="1024.000000pt" height="1024.000000pt" viewBox="0 0 1024.000000 1024.000000"
 preserveAspectRatio="xMidYMid meet">

<g transform="translate(0.000000,1024.000000) scale(0.100000,-0.100000)"
fill="#000000" stroke="none">
<path d="M4945 10206 c-166 -38 -305 -115 -426 -235 -90 -91 -149 -179 -189
-284 -124 -320 -54 -671 183 -915 106 -109 282 -205 435 -238 85 -18 258 -18
342 0 306 65 547 283 646 586 26 79 28 96 28 250 0 154 -2 171 -28 250 -48
147 -127 272 -237 375 -99 93 -188 145 -329 190 -73 24 -106 28 -225 31 -94 2
-160 -1 -200 -10z m250 -417 c226 -42 384 -264 346 -485 -40 -230 -259 -391
-482 -355 -186 30 -330 174 -360 360 -28 176 73 366 235 442 99 46 165 56 261
38z"/>
<path d="M5040 8054 c-45 -20 -87 -59 -111 -106 -18 -36 -19 -73 -19 -1050 l0
-1013 -377 377 c-208 207 -391 383 -408 391 -106 52 -232 11 -285 -94 -26 -49
-27 -142 -2 -187 25 -47 1161 -1182 1199 -1198 47 -20 129 -18 177 6 27 13
232 211 612 592 466 468 574 580 585 613 61 189 -122 354 -296 268 -16 -8
-200 -184 -407 -391 l-378 -376 -2 1025 -3 1026 -29 41 c-54 79 -171 113 -256
76z"/>
<path d="M2925 5916 c-711 -235 -1130 -587 -1220 -1022 -15 -71 -16 -245 -16
-1779 1 -1698 1 -1699 22 -1780 103 -388 443 -696 1020 -921 1184 -461 3214
-498 4529 -81 258 82 534 208 710 325 277 184 445 390 527 647 l28 90 0 1735
0 1735 -28 88 c-132 422 -506 723 -1181 953 -100 34 -176 54 -204 54 -58 0
-123 -31 -161 -76 -106 -130 -41 -296 139 -352 362 -114 666 -270 825 -427
113 -111 185 -251 185 -357 0 -38 -6 -47 -87 -128 -330 -327 -1082 -617 -1906
-734 -616 -88 -1313 -93 -1927 -15 -724 92 -1366 298 -1774 569 -160 107 -278
218 -292 276 -9 37 22 159 58 228 46 87 180 219 305 300 157 103 424 222 628
281 77 22 123 46 157 82 98 103 67 267 -64 334 -58 30 -125 24 -273 -25z
m5175 -2295 l0 -509 -38 -49 c-146 -183 -564 -414 -1031 -569 -1134 -376
-2732 -377 -3881 -2 -408 133 -817 354 -972 526 -72 80 -68 46 -66 601 l3 500
75 -48 c470 -302 1170 -528 1945 -625 388 -49 990 -70 1385 -47 720 42 1363
173 1915 391 173 68 449 205 560 279 50 33 93 60 98 60 4 1 7 -228 7 -508z
m-20 -2211 c-111 -370 -748 -687 -1680 -840 -394 -64 -691 -89 -1145 -97 -993
-17 -1900 126 -2497 392 -346 154 -553 335 -624 545 l-24 72 0 519 0 518 93
-60 c178 -116 486 -260 755 -353 885 -307 2098 -402 3187 -250 741 104 1452
342 1885 631 l65 43 3 -527 c2 -502 1 -531 -18 -593z"/>
</g>
</svg>
