<?xml version="1.0" encoding="UTF-8"?>
<svg version="1.1" xmlns="http://www.w3.org/2000/svg" viewBox="-180 -180 900 900" width="48" height="48">
<path d="M0 0 C1.91438281 1.51857123 3.81074525 3.06016399 5.6875 4.625 C7.07195312 5.76388672 7.07195312 5.76388672 8.484375 6.92578125 C15.96776316 13.38390295 21.90669604 20.66412901 27.6875 28.625 C28.10354492 29.19283203 28.51958984 29.76066406 28.94824219 30.34570312 C38.01672984 42.87330462 47.45537673 57.68661251 51.6875 72.625 C52.3578125 72.47160156 53.028125 72.31820312 53.71875 72.16015625 C87.64772398 66.04401226 128.68211211 71.20523601 157.6875 90.625 C161.25629344 93.42031009 164.50118117 96.40423448 167.6875 99.625 C168.31011719 100.21410156 168.93273437 100.80320312 169.57421875 101.41015625 C182.95023153 115.08675359 186.20387814 133.77343779 186.10766602 152.11743164 C185.88404795 161.70728901 184.52767999 170.47652204 181.6875 179.625 C181.4620752 180.36314941 181.23665039 181.10129883 181.00439453 181.86181641 C175.29529169 199.98133832 166.39782577 217.41646703 155.07714844 232.66674805 C151.68728609 237.20844956 151.68728609 237.20844956 150.6875 242.625 C151.93740308 244.97372407 151.93740308 244.97372407 153.9375 247.25 C172.47399619 271.36040763 186.09039032 301.88402559 186 332.5625 C186.01611328 333.65240234 186.03222656 334.74230469 186.04882812 335.86523438 C186.05516617 346.53216155 183.96415039 356.25358943 179.0625 365.75 C178.71695068 366.42740234 178.37140137 367.10480469 178.01538086 367.80273438 C174.75555501 373.93234642 170.69973782 378.82124348 165.6875 383.625 C165.03652344 384.30691406 164.38554687 384.98882812 163.71484375 385.69140625 C141.52858086 407.53568436 105.53470997 410.98573974 76.0390625 410.79541016 C58.52247682 410.53879351 58.52247682 410.53879351 51.6875 408.625 C51.43097656 409.46160156 51.17445313 410.29820312 50.91015625 411.16015625 C39.7151529 442.88529355 15.08101687 476.11259769 -15.5546875 490.96484375 C-30.46056846 497.74268514 -49.55199644 499.67542905 -65.3984375 494.7890625 C-103.64611869 479.51049816 -126.04669534 445.92773163 -142.3125 409.625 C-143.30765625 409.6971875 -144.3028125 409.769375 -145.328125 409.84375 C-182.01580055 412.35196631 -223.19579965 411.61965776 -252.8984375 386.8203125 C-266.37980369 374.56055878 -275.0733662 359.37049445 -276.51904297 341.00048828 C-277.43602195 315.33933043 -270.6303302 292.04548105 -258.3125 269.625 C-257.99168457 269.0263916 -257.67086914 268.4277832 -257.34033203 267.81103516 C-252.36785082 258.54540105 -246.56860429 250.06048488 -240.3125 241.625 C-241.57664909 239.0026089 -242.94168678 236.56547522 -244.5625 234.1484375 C-264.44347364 204.18270027 -282.37500101 168.96668633 -275.28759766 131.84399414 C-270.96863946 112.80817478 -259.84434676 98.13793905 -243.6015625 87.58203125 C-212.90984884 69.32009711 -176.83278346 69.6801953 -142.3125 71.625 C-142.06193848 71.07263672 -141.81137695 70.52027344 -141.55322266 69.95117188 C-131.82391464 48.64817908 -120.46631051 29.73900205 -104.3125 12.625 C-103.61640625 11.86445313 -102.9203125 11.10390625 -102.203125 10.3203125 C-74.1838137 -19.2329027 -32.85385288 -24.0020376 0 0 Z M-87.72851562 30.93652344 C-99.84057429 43.84758967 -110.49176854 59.86661956 -116.3125 76.625 C-115.56613281 76.8209375 -114.81976563 77.016875 -114.05078125 77.21875 C-110.71420646 78.10140148 -107.38101436 78.99583362 -104.04833984 79.89306641 C-102.0862976 80.41798187 -100.12291898 80.93791193 -98.15869141 81.45458984 C-83.61090117 85.28623481 -69.33702424 89.34919687 -55.34423828 94.91870117 C-54.38759277 95.28713135 -53.43094727 95.65556152 -52.4453125 96.03515625 C-51.61918457 96.36652588 -50.79305664 96.69789551 -49.94189453 97.03930664 C-43.98098759 98.36708898 -38.32835317 96.13239789 -32.73828125 94.1484375 C-31.26368596 93.63986781 -29.78890617 93.13183284 -28.31396484 92.62426758 C-27.54832214 92.35869049 -26.78267944 92.0931134 -25.99383545 91.81948853 C-10.33542471 86.40252808 5.2983315 81.85548038 21.46142578 78.19067383 C23.70630845 77.70440989 23.70630845 77.70440989 25.6875 76.625 C24.2839463 72.00526296 22.40349006 67.80470702 20.125 63.5625 C19.59990845 62.58458496 19.59990845 62.58458496 19.06420898 61.58691406 C7.37443253 40.26128514 -9.65790833 17.94693126 -33.734375 10.2734375 C-55.10815267 4.89760857 -73.09931318 16.18801131 -87.72851562 30.93652344 Z M-241.71484375 118.54296875 C-250.73302764 130.29527196 -252.47743619 143.35161939 -251.3125 157.625 C-249.79683893 168.81028722 -245.96472921 179.39273904 -241.3125 189.625 C-240.87164062 190.59735596 -240.87164062 190.59735596 -240.421875 191.58935547 C-235.65493431 201.93371777 -229.84466103 211.30863919 -223.3125 220.625 C-222.5803125 219.8928125 -221.848125 219.160625 -221.09375 218.40625 C-209.3125 206.625 -209.3125 206.625 -206.9453125 204.265625 C-205.00228878 202.31683563 -203.07169326 200.35871458 -201.1484375 198.390625 C-193.46480522 190.56304227 -185.71035301 182.83499194 -176.50390625 176.77685547 C-170.70442389 172.71581017 -167.69840485 169.60237489 -166.13671875 162.58984375 C-165.82358766 160.61021837 -165.51175652 158.62971956 -165.26168823 156.6411438 C-164.90273553 153.78990819 -164.44090831 150.95794974 -163.98561096 148.12077332 C-163.75597931 146.6831303 -163.53154399 145.24464747 -163.31236267 143.80537415 C-162.31908325 137.33829624 -160.88898036 131.02188152 -159.25 124.6875 C-159.00386963 123.72900146 -158.75773926 122.77050293 -158.50415039 121.78295898 C-156.2975708 113.34163707 -153.87345856 104.96511285 -151.3125 96.625 C-180.73299648 91.5384688 -220.2410946 96.05391231 -241.71484375 118.54296875 Z M61.6875 96.625 C62.60259709 101.86601063 63.73191369 106.90305776 65.31225586 111.98632812 C67.93111819 120.42068051 69.95956706 128.92815515 71.8125 137.5625 C72.07417969 138.76986816 72.33585937 139.97723633 72.60546875 141.22119141 C73.89826878 147.33630129 74.95483417 153.38140309 75.66088867 159.58959961 C76.38689782 165.58798588 77.03808026 170.01432788 82 174 C83.8901312 175.21723355 85.78652289 176.42477523 87.6875 177.625 C89.95985233 179.40614703 92.1356565 181.29146042 94.3125 183.1875 C94.89942627 183.69289307 95.48635254 184.19828613 96.09106445 184.71899414 C108.7165514 195.64687979 120.46697933 207.2648952 131.6875 219.625 C135.1924455 218.45668483 135.48282745 217.80889351 137.32421875 214.75 C137.815271 213.93829346 138.30632324 213.12658691 138.81225586 212.2902832 C139.32796143 211.41073975 139.84366699 210.53119629 140.375 209.625 C141.17466187 208.26991333 141.17466187 208.26991333 141.99047852 206.88745117 C149.89540199 193.30328544 155.84050299 179.88090232 159.6875 164.625 C159.88859375 163.84769531 160.0896875 163.07039063 160.296875 162.26953125 C162.3060999 148.66707871 162.01918364 133.84099588 153.875 122.3125 C152.83716423 121.06243846 151.77453371 119.83252419 150.6875 118.625 C150.16285156 118.02042969 149.63820313 117.41585937 149.09765625 116.79296875 C137.02194967 103.75120564 118.6938403 99.06749689 101.6875 96.625 C100.80449219 96.49351563 99.92148437 96.36203125 99.01171875 96.2265625 C92.51535317 95.45984631 85.97040712 95.52725162 79.4375 95.5 C78.48987793 95.49524658 77.54225586 95.49049316 76.56591797 95.4855957 C71.4984026 95.49765909 66.68163064 95.75585572 61.6875 96.625 Z M-126.3125 100.625 C-129.11726268 107.29556985 -131.43888563 113.96722889 -133.375 120.9375 C-133.63104004 121.84741699 -133.88708008 122.75733398 -134.15087891 123.69482422 C-137.80085658 135.49656844 -137.80085658 135.49656844 -139.3125 147.625 C-135.98958673 146.0415161 -132.90510484 144.18293774 -129.78125 142.23828125 C-113.27671959 132.04353024 -96.51890475 122.58584584 -79.3125 113.625 C-80.1249051 111.45499352 -80.1249051 111.45499352 -82.25170898 110.81884766 C-83.09548096 110.56151855 -83.93925293 110.30418945 -84.80859375 110.0390625 C-85.7517041 109.74974854 -86.69481445 109.46043457 -87.66650391 109.16235352 C-89.19283447 108.71073853 -89.19283447 108.71073853 -90.75 108.25 C-91.78302246 107.94054443 -92.81604492 107.63108887 -93.88037109 107.31225586 C-100.35642699 105.4057441 -106.84983828 103.66376951 -113.4375 102.1875 C-114.52695923 101.94217529 -114.52695923 101.94217529 -115.63842773 101.69189453 C-119.269274 100.91875053 -122.61071677 100.56101169 -126.3125 100.625 Z M25.29296875 101.76171875 C24.26171875 102.00696289 23.23046875 102.25220703 22.16796875 102.50488281 C20.53794922 102.90465332 20.53794922 102.90465332 18.875 103.3125 C17.76382812 103.58288086 16.65265625 103.85326172 15.5078125 104.13183594 C2.42144116 107.30122396 2.42144116 107.30122396 -10.3125 111.625 C-10.6425 112.285 -10.9725 112.945 -11.3125 113.625 C-10.65991211 113.9559668 -10.00732422 114.28693359 -9.33496094 114.62792969 C10.33932738 124.64079866 29.23089977 135.52431508 47.6875 147.625 C48.8131181 144.25058739 48.5436171 142.0426881 47.68359375 138.6171875 C47.31850708 137.1487439 47.31850708 137.1487439 46.94604492 135.65063477 C46.6751001 134.61092529 46.40415527 133.57121582 46.125 132.5 C45.71761597 130.90466431 45.71761597 130.90466431 45.30200195 129.27709961 C42.37404963 114.01455044 42.37404963 114.01455044 35.6875 100.625 C32.02986133 100.40550155 28.84392319 100.91373427 25.29296875 101.76171875 Z M-53.01953125 128.01171875 C-54.15197266 128.5312915 -55.28441406 129.05086426 -56.45117188 129.58618164 C-57.67626782 130.16058447 -58.90086579 130.73605043 -60.125 131.3125 C-60.74753662 131.60333466 -61.37007324 131.89416931 -62.01147461 132.19381714 C-74.4860924 138.03635712 -86.45537502 144.61429954 -98.3125 151.625 C-100.08195003 152.65769127 -101.85148023 153.69024518 -103.62109375 154.72265625 C-112.90352249 160.17801898 -121.97571226 165.85679132 -130.73046875 172.12890625 C-133.01278278 173.75913056 -135.21895887 175.13771251 -137.67578125 176.52734375 C-142.27726194 179.25481025 -144.81673699 180.97245664 -146.390625 186.21875 C-146.92617 189.55089661 -147.1298059 192.87281544 -147.2212677 196.24731445 C-147.32832392 199.03740123 -147.57080111 201.80418254 -147.8112793 204.5859375 C-148.3367266 211.31217457 -148.47380497 217.993838 -148.48046875 224.73828125 C-148.48379715 225.95033737 -148.48712555 227.16239349 -148.49055481 228.41117859 C-148.49558434 230.96332423 -148.49796438 233.51547636 -148.49780273 236.06762695 C-148.4999728 239.88960185 -148.51812672 243.7112797 -148.53710938 247.53320312 C-148.56491914 259.42606525 -148.38312453 271.24672985 -147.42578125 283.10546875 C-147.34804977 284.08542313 -147.2703183 285.0653775 -147.19023132 286.07502747 C-146.52768498 294.98819511 -146.52768498 294.98819511 -141.58203125 302.046875 C-140.44093343 302.83936005 -139.2876909 303.61454839 -138.125 304.375 C-137.18624023 305.01441528 -137.18624023 305.01441528 -136.22851562 305.66674805 C-134.91307674 306.55939071 -133.59282341 307.44497607 -132.26806641 308.32373047 C-130.43875391 309.54098834 -128.62943543 310.78254644 -126.82421875 312.03515625 C-104.60356457 327.32786399 -80.5433549 340.64552985 -56.125 352.0625 C-55.33013184 352.44631836 -54.53526367 352.83013672 -53.71630859 353.22558594 C-52.59796631 353.7307373 -52.59796631 353.7307373 -51.45703125 354.24609375 C-50.82128174 354.5392749 -50.18553223 354.83245605 -49.53051758 355.13452148 C-43.79799082 356.40217655 -38.74087615 354.16612848 -33.65625 351.703125 C-33.04055649 351.40709885 -32.42486298 351.11107269 -31.79051208 350.80607605 C-29.79219339 349.84018834 -27.80200614 348.85889829 -25.8125 347.875 C-25.12576202 347.53864532 -24.43902405 347.20229065 -23.73147583 346.85574341 C1.94017329 334.27439033 26.80188943 319.81334887 49.6875 302.625 C50.59371094 302.12226563 51.49992188 301.61953125 52.43359375 301.1015625 C58.72267334 294.19120468 57.24483037 279.94970698 57.69287109 270.90039062 C57.81129437 268.52419132 57.94192072 266.14890021 58.07421875 263.7734375 C58.94546602 247.51429297 58.84818094 231.37335565 57.94287109 215.11816406 C57.81140925 212.73018683 57.69248386 210.3417882 57.57421875 207.953125 C57.65963784 193.05814142 57.65963784 193.05814142 52.5 179.90625 C51.1078125 179.02453125 51.1078125 179.02453125 49.6875 178.125 C48.6046875 177.40957031 47.521875 176.69414062 46.40625 175.95703125 C45.80941406 175.58529785 45.21257812 175.21356445 44.59765625 174.83056641 C42.55945141 173.54418406 40.57709644 172.19356191 38.59375 170.82421875 C15.45728449 154.93126674 -9.25182193 140.81140911 -34.8125 129.1875 C-35.62460937 128.8160083 -36.43671875 128.4445166 -37.2734375 128.06176758 C-43.31906379 125.39654068 -46.83389524 125.1708751 -53.01953125 128.01171875 Z M-176.55859375 208.5546875 C-177.22640869 209.18044678 -177.89422363 209.80620605 -178.58227539 210.45092773 C-179.29762451 211.12712158 -180.01297363 211.80331543 -180.75 212.5 C-181.47630615 213.18457275 -182.2026123 213.86914551 -182.95092773 214.57446289 C-188.50600231 219.82712812 -194.01351995 225.11211617 -199.3125 230.625 C-200.02535156 231.36621094 -200.73820312 232.10742188 -201.47265625 232.87109375 C-202.12105469 233.57363281 -202.76945312 234.27617187 -203.4375 235 C-203.99695313 235.60585937 -204.55640625 236.21171875 -205.1328125 236.8359375 C-206.67949109 238.82439761 -206.67949109 238.82439761 -206.3125 242.625 C-205.17469112 244.40377655 -205.17469112 244.40377655 -203.5234375 246.0234375 C-202.91806152 246.66128174 -202.31268555 247.29912598 -201.68896484 247.95629883 C-201.02848145 248.63072021 -200.36799805 249.3051416 -199.6875 250 C-199.01541504 250.69955811 -198.34333008 251.39911621 -197.65087891 252.11987305 C-195.54900155 254.29915177 -193.43201216 256.46288212 -191.3125 258.625 C-190.65121094 259.30675293 -189.98992187 259.98850586 -189.30859375 260.69091797 C-187.44247716 262.61405478 -185.56754841 264.52798853 -183.6875 266.4375 C-183.1207959 267.01741699 -182.5540918 267.59733398 -181.97021484 268.19482422 C-181.43090332 268.73510254 -180.8915918 269.27538086 -180.3359375 269.83203125 C-179.87106934 270.3010083 -179.40620117 270.76998535 -178.92724609 271.25317383 C-176.87467714 273.07252701 -176.87467714 273.07252701 -172.3125 275.625 C-172.3125 252.525 -172.3125 229.425 -172.3125 205.625 C-174.13895687 205.625 -175.28994691 207.36336608 -176.55859375 208.5546875 Z M81.6875 205.625 C81.72302979 206.60855469 81.75855957 207.59210938 81.79516602 208.60546875 C82.58430908 231.0045958 82.72023506 253.23268113 81.6875 275.625 C85.90573854 273.98067757 88.72697177 270.85617587 91.84375 267.69921875 C92.71997009 266.82231133 92.71997009 266.82231133 93.6138916 265.9276886 C94.84669515 264.69186913 96.0770725 263.45362526 97.30517578 262.21313477 C99.17562956 260.32448591 101.05389964 258.44390101 102.93359375 256.56445312 C104.13328412 255.35984451 105.33251796 254.15478102 106.53125 252.94921875 C107.08864868 252.39070724 107.64604736 251.83219574 108.22033691 251.25675964 C111.2538858 248.18651086 114.05455405 245.05586866 116.6875 241.625 C112.39709618 231.62951867 101.21096221 223.03068318 93.6875 215.4375 C92.85033447 214.58728271 92.01316895 213.73706543 91.15063477 212.86108398 C90.35842529 212.06774658 89.56621582 211.27440918 88.75 210.45703125 C87.68458984 209.38545776 87.68458984 209.38545776 86.59765625 208.29223633 C84.6913157 206.41205507 84.6913157 206.41205507 81.6875 205.625 Z M-223.3125 261.625 C-241.36720799 283.84617906 -253.11718982 312.88364369 -251.3125 341.625 C-249.63955031 352.68348099 -242.97483744 362.72567034 -234.3125 369.625 C-212.05164883 384.8725473 -179.74650234 389.81213562 -153.44311523 385.11230469 C-152.74001221 384.95149414 -152.03690918 384.79068359 -151.3125 384.625 C-151.62888428 383.5726416 -151.62888428 383.5726416 -151.95166016 382.49902344 C-155.96322878 369.06037738 -159.70330357 355.65950862 -162.625 341.9375 C-162.87926758 340.76727295 -163.13353516 339.5970459 -163.39550781 338.39135742 C-164.43948975 333.4443865 -165.39467234 328.59156009 -165.78515625 323.546875 C-166.41784608 316.04090996 -167.77699875 311.37601595 -173.57421875 306.44995117 C-176.39610041 304.26344929 -179.29244516 302.19960276 -182.21875 300.15576172 C-185.43827822 297.8019322 -188.30402725 295.12290812 -191.1875 292.375 C-192.24820712 291.37578082 -193.30939155 290.37706806 -194.37109375 289.37890625 C-194.8697998 288.90855957 -195.36850586 288.43821289 -195.88232422 287.95361328 C-197.96083449 286.02270633 -200.10969766 284.17438903 -202.25 282.3125 C-207.39796673 277.72427924 -212.02799649 272.68139476 -216.66772461 267.58862305 C-217.52829468 266.64756714 -217.52829468 266.64756714 -218.40625 265.6875 C-218.91865234 265.12160156 -219.43105469 264.55570312 -219.95898438 263.97265625 C-221.29186496 262.50441371 -221.29186496 262.50441371 -223.3125 261.625 Z M130.13452148 263.04272461 C129.23068726 264.02511108 129.23068726 264.02511108 128.30859375 265.02734375 C127.63892578 265.74873535 126.96925781 266.47012695 126.27929688 267.21337891 C125.56837891 267.98858887 124.85746094 268.76379883 124.125 269.5625 C122.66630262 271.13238254 121.20667461 272.7014009 119.74609375 274.26953125 C119.04339355 275.02572754 118.34069336 275.78192383 117.61669922 276.56103516 C112.37599484 282.16783278 106.95507028 287.53963232 101.125 292.53515625 C99.09098112 294.27906666 97.07418949 296.0391092 95.0625 297.80859375 C93.72923081 298.97663572 92.39589682 300.14460373 91.0625 301.3125 C90.42876465 301.87163086 89.7950293 302.43076172 89.14208984 303.00683594 C88.52543457 303.54469727 87.9087793 304.08255859 87.2734375 304.63671875 C86.37105347 305.43021729 86.37105347 305.43021729 85.45043945 306.23974609 C83.6875 307.625 83.6875 307.625 80.37890625 309.20703125 C75.84384794 313.28134343 76.00832858 318.78598377 75.25 324.625 C74.85508991 327.25178801 74.45367981 329.87636974 74.0390625 332.5 C73.93454269 333.1710376 73.83002289 333.8420752 73.72233582 334.53344727 C72.58118989 341.65896295 70.90829049 348.63446323 69.125 355.625 C68.84406494 356.73746094 68.56312988 357.84992188 68.27368164 358.99609375 C66.53831036 365.71769458 64.57335169 372.33870426 62.44165039 378.9453125 C61.55204594 381.64233817 61.55204594 381.64233817 61.6875 384.625 C87.90594179 390.62775405 119.83967983 384.32355441 142.6875 370.625 C152.65235497 363.71344321 158.00905383 354.30225453 160.6875 342.625 C161.11597044 339.29859508 161.21309285 336.03920362 161.1875 332.6875 C161.18105469 331.78217529 161.17460937 330.87685059 161.16796875 329.9440918 C160.53181309 305.91456729 148.25025757 280.43824734 133.6875 261.625 C131.58321519 261.4002619 131.58321519 261.4002619 130.13452148 263.04272461 Z M-139.3125 333.625 C-136.83475788 350.08164543 -131.7626326 365.9488454 -126.3125 381.625 C-110.38288607 378.42244641 -94.84666861 374.3849053 -79.3125 369.625 C-79.3125 368.965 -79.3125 368.305 -79.3125 367.625 C-79.92319336 367.32021729 -80.53388672 367.01543457 -81.16308594 366.70141602 C-97.80821967 358.34336175 -113.68826999 349.13766188 -129.51269531 339.33935547 C-132.74220973 337.36188335 -136.00589572 335.46998934 -139.3125 333.625 Z M47.6875 333.625 C47.20095947 333.93614746 46.71441895 334.24729492 46.21313477 334.56787109 C27.46354442 346.53756389 8.4934834 357.48437851 -11.3125 367.625 C-11.3125 368.285 -11.3125 368.945 -11.3125 369.625 C-7.56420418 370.7139142 -3.81455523 371.79803595 -0.0637207 372.87817383 C1.82214334 373.42225071 3.70698605 373.96986379 5.59179688 374.51757812 C20.39533943 379.13178035 20.39533943 379.13178035 35.6875 380.625 C39.08962578 373.6651973 41.29213098 366.58963775 43.3125 359.125 C43.6115625 358.04863281 43.910625 356.97226562 44.21875 355.86328125 C45.06490223 352.78942737 45.88521045 349.71057058 46.6875 346.625 C46.9153418 345.75230469 47.14318359 344.87960937 47.37792969 343.98046875 C47.57032227 343.19285156 47.76271484 342.40523438 47.9609375 341.59375 C48.21109619 340.57958008 48.21109619 340.57958008 48.46630859 339.54492188 C48.72074861 337.33640498 48.34409004 335.73408241 47.6875 333.625 Z M-52.80859375 385.53125 C-53.91074219 385.94173584 -55.01289063 386.35222168 -56.1484375 386.77514648 C-57.93121094 387.44332397 -57.93121094 387.44332397 -59.75 388.125 C-78.26396449 394.91143424 -97.17329391 399.89886771 -116.3125 404.625 C-114.77320942 409.94485592 -112.38057937 414.51126577 -109.6875 419.3125 C-109.01763062 420.50951538 -109.01763062 420.50951538 -108.33422852 421.73071289 C-104.74756484 428.04270382 -100.82959484 433.93451919 -96.3125 439.625 C-95.57 440.56988281 -94.8275 441.51476562 -94.0625 442.48828125 C-82.46849281 456.96120576 -68.35511483 469.85080611 -49.3125 472.625 C-36.01770038 473.71473767 -22.99144637 468.3719372 -12.91796875 459.8515625 C-9.58995386 456.90028583 -6.43110554 453.79510931 -3.3125 450.625 C-2.49910156 449.8103125 -1.68570313 448.995625 -0.84765625 448.15625 C8.03133906 438.79351329 25.6875 417.91658576 25.6875 404.625 C24.92123291 404.44026123 24.15496582 404.25552246 23.36547852 404.06518555 C7.55430287 400.21448037 -8.01394003 395.95399033 -23.4375 390.75 C-24.50700394 390.38943008 -24.50700394 390.38943008 -25.59811401 390.02157593 C-37.28266058 386.06770824 -37.28266058 386.06770824 -40.97607422 384.47998047 C-45.41320367 382.85627855 -48.59609215 383.92889283 -52.80859375 385.53125 Z " fill="#989898" transform="translate(301.3125,15.375)"/>
<path d="M0 0 C3.0735547 1.70540923 5.40579136 3.81158271 7 7 C7.084915 8.8863912 7.107193 10.77578515 7.09765625 12.6640625 C7.09443359 13.78554687 7.09121094 14.90703125 7.08789062 16.0625 C7.07532227 17.8259375 7.07532227 17.8259375 7.0625 19.625 C7.05798828 20.80835938 7.05347656 21.99171875 7.04882812 23.2109375 C7.03701467 26.14067507 7.02054258 29.07031272 7 32 C7.72590332 31.97381592 8.45180664 31.94763184 9.19970703 31.9206543 C12.50791541 31.8163319 15.8157772 31.75156128 19.125 31.6875 C20.26710938 31.64560547 21.40921875 31.60371094 22.5859375 31.56054688 C32.09006383 31.4224055 32.09006383 31.4224055 35.7421875 34.39453125 C39.26596078 38.46089245 39.38980471 41.1924869 39.359375 46.44921875 C38.78039966 50.55868504 37.00085071 52.21349577 34 55 C31.33821779 56.3308911 29.31260604 56.11268993 26.3359375 56.09765625 C25.21445313 56.09443359 24.09296875 56.09121094 22.9375 56.08789062 C21.761875 56.07951172 20.58625 56.07113281 19.375 56.0625 C18.19164062 56.05798828 17.00828125 56.05347656 15.7890625 56.04882812 C12.85932493 56.03701467 9.92968728 56.02054258 7 56 C7.02618408 56.72590332 7.05236816 57.45180664 7.0793457 58.19970703 C7.1836681 61.50791541 7.24843872 64.8157772 7.3125 68.125 C7.35439453 69.26710938 7.39628906 70.40921875 7.43945312 71.5859375 C7.5775945 81.09006383 7.5775945 81.09006383 4.60546875 84.7421875 C0.53910755 88.26596078 -2.1924869 88.38980471 -7.44921875 88.359375 C-11.55868504 87.78039966 -13.21349577 86.00085071 -16 83 C-17.3308911 80.33821779 -17.11268993 78.31260604 -17.09765625 75.3359375 C-17.09443359 74.21445312 -17.09121094 73.09296875 -17.08789062 71.9375 C-17.07951172 70.761875 -17.07113281 69.58625 -17.0625 68.375 C-17.05798828 67.19164062 -17.05347656 66.00828125 -17.04882812 64.7890625 C-17.03701467 61.85932493 -17.02054258 58.92968728 -17 56 C-18.08885498 56.03927612 -18.08885498 56.03927612 -19.19970703 56.0793457 C-22.50791541 56.1836681 -25.8157772 56.24843872 -29.125 56.3125 C-30.83816406 56.3753418 -30.83816406 56.3753418 -32.5859375 56.43945312 C-42.09006383 56.5775945 -42.09006383 56.5775945 -45.7421875 53.60546875 C-49.26527959 49.53989363 -49.39350593 46.80752019 -49.35546875 41.55078125 C-48.7778449 37.4058541 -47.06536529 35.78021503 -44 33 C-40.8815675 31.9605225 -38.72524414 31.88505162 -35.45703125 31.90234375 C-34.38388672 31.90556641 -33.31074219 31.90878906 -32.20507812 31.91210938 C-31.08552734 31.92048828 -29.96597656 31.92886719 -28.8125 31.9375 C-27.11577148 31.94426758 -27.11577148 31.94426758 -25.38476562 31.95117188 C-22.58979073 31.96296502 -19.7949218 31.9794235 -17 32 C-17.03927612 30.91114502 -17.03927612 30.91114502 -17.0793457 29.80029297 C-17.1836681 26.49208459 -17.24843872 23.1842228 -17.3125 19.875 C-17.35439453 18.73289063 -17.39628906 17.59078125 -17.43945312 16.4140625 C-17.57761915 6.90824003 -17.57761915 6.90824003 -14.66796875 3.2578125 C-10.26630439 -0.46716847 -5.57752713 -0.87416098 0 0 Z " fill="#989898" transform="translate(213,212)"/>
<path d="M0 0 C1.12159012 -0.01606293 2.24318024 -0.03212585 3.39875793 -0.04867554 C8.52314372 -0.09315306 13.64744171 -0.13461883 18.77197266 -0.15722656 C21.4754423 -0.17056017 24.17815607 -0.19840435 26.88134766 -0.23925781 C30.77879568 -0.29399391 34.67521754 -0.31589615 38.57299805 -0.33056641 C39.77942459 -0.35323578 40.98585114 -0.37590515 42.22883606 -0.39926147 C51.58035659 -0.3756973 51.58035659 -0.3756973 55.26904297 2.60058594 C58.79412298 6.65620405 58.91197473 9.39343818 58.8815918 14.64208984 C58.30261645 18.75155614 56.5230675 20.40636687 53.5222168 23.19287109 C50.92106893 24.49344503 48.97916759 24.34857061 46.06616211 24.38574219 C44.92447571 24.40180511 43.78278931 24.41786804 42.60650635 24.43441772 C37.377907 24.47880997 32.1493954 24.52038007 26.9206543 24.54296875 C24.16185226 24.55629237 21.40379268 24.58411352 18.64526367 24.625 C14.6719772 24.68388832 10.69904973 24.70164094 6.7253418 24.71630859 C5.49390442 24.73897797 4.26246704 24.76164734 2.99371338 24.78500366 C-6.55131783 24.7614363 -6.55131783 24.7614363 -10.24047852 21.78515625 C-13.74424769 17.72546386 -13.87117561 14.98470188 -13.83325195 9.74365234 C-13.25562811 5.59872519 -11.5431485 3.97308613 -8.4777832 1.19287109 C-5.40191025 0.16758011 -3.22483876 0.04198328 0 0 Z " fill="#989898" transform="translate(289.477783203125,243.80712890625)"/>
</svg>
