<?xml version="1.0" encoding="UTF-8"?>
<svg version="1.1" xmlns="http://www.w3.org/2000/svg" width="28px" height="28px"
	viewBox="0 0 512 512">
<path d="M0 0 C0.65097656 -0.00978378 1.30195312 -0.01956757 1.97265625 -0.02964783 C4.12009675 -0.05948129 6.26747549 -0.08095421 8.41503906 -0.09985352 C9.51988018 -0.10971126 9.51988018 -0.10971126 10.64704132 -0.11976814 C14.54657573 -0.15231008 18.44608342 -0.17677261 22.34570312 -0.19628906 C25.56225568 -0.21408836 28.77792924 -0.24889152 31.99414062 -0.29882812 C35.88922418 -0.35922077 39.78349434 -0.38978972 43.67902374 -0.39946175 C45.15736623 -0.40798515 46.63568878 -0.42672633 48.1137619 -0.45620537 C61.95285035 -0.7173409 61.95285035 -0.7173409 67.9331665 4.23448181 C73.52131121 11.60173373 72.78889256 19.26513696 72.61816406 28.14624023 C72.60309398 29.51145989 72.58940967 30.87669559 72.57714844 32.24194336 C72.5419257 35.56462119 72.49266447 38.88647204 72.43066406 42.20874023 C73.16034889 42.20760107 73.89003372 42.20646191 74.64183021 42.20528823 C117.90625076 42.13812762 161.17066564 42.08666721 204.4351279 42.05554425 C209.63204499 42.05179221 214.82896197 42.04790923 220.02587891 42.04394531 C221.57777231 42.04276492 221.57777231 42.04276492 223.16101709 42.04156067 C239.90446353 42.0285132 256.647879 42.00486298 273.39130709 41.97728185 C290.57659169 41.94920934 307.76186009 41.93256007 324.94716668 41.92647475 C335.54807742 41.92236214 346.14890064 41.90938119 356.74978444 41.88499083 C364.02305434 41.86911087 371.29627912 41.864345 378.56956509 41.8682361 C382.76341353 41.87015413 386.95710924 41.86725135 391.1509304 41.85112381 C394.99681792 41.83644286 398.84245108 41.83584053 402.68835071 41.84604355 C404.72545524 41.84789603 406.76255712 41.83503101 408.79961753 41.82149631 C425.00511661 41.90002574 439.32035848 46.33643198 451.17675781 57.73608398 C462.49400926 70.15171686 465.04211881 84.09059921 464.93859863 100.38331604 C464.94321681 101.98228694 464.94957584 103.58125359 464.95750761 105.18021148 C464.97409817 109.54019912 464.96600178 113.89983341 464.95356274 118.25982177 C464.94447225 122.97495513 464.95850167 127.69002985 464.96948242 132.40515137 C464.9872293 141.62842537 464.98344489 150.85156886 464.97183186 160.07484788 C464.96278325 167.5730157 464.96157971 175.07114705 464.96592712 182.56931877 C464.96654006 183.63815753 464.96715299 184.70699628 464.96778449 185.80822409 C464.96906345 187.97981439 464.9703603 190.15140467 464.97167486 192.32299494 C464.98306929 212.66531509 464.96998451 233.00756303 464.94847339 253.34987133 C464.93060089 270.79106364 464.93371 288.23214945 464.95214844 305.67333984 C464.97357081 325.94645739 464.98197346 346.21951172 464.96969938 366.49263901 C464.96842524 368.65575181 464.96716775 370.81886463 464.96592712 372.98197746 C464.96531002 374.04616475 464.96469292 375.11035204 464.96405712 376.20678743 C464.96060852 383.6933757 464.96642195 391.17992377 464.97584534 398.66650581 C464.98708176 407.79375644 464.9839906 416.92086953 464.96272236 426.04810447 C464.95223449 430.70179575 464.94805146 435.35525797 464.96131897 440.00894737 C464.97329555 444.27444126 464.9665942 448.53949517 464.94540876 452.80494951 C464.94096493 454.34244494 464.94315867 455.87997804 464.95291191 457.41744895 C465.04517068 473.17789847 461.18251568 486.33597283 450.18066406 497.95874023 C437.94799213 509.53791383 424.34666649 512.8484507 407.84863281 512.73999023 C406.38039392 512.7426929 404.91215679 512.74658171 403.44392395 512.75158691 C400.39058117 512.75743646 397.33771106 512.74906192 394.28442383 512.73022461 C390.38623198 512.70733494 386.48913602 512.72064879 382.59098339 512.74451447 C379.56848473 512.7590102 376.54624362 512.75435111 373.52373695 512.7440033 C372.08652933 512.74135165 370.64929767 512.74455029 369.21211815 512.75392151 C355.24030925 512.82512347 355.24030925 512.82512347 349.43066406 508.20874023 C345.31041182 502.8957834 344.30405804 499.20151985 344.33300781 492.57202148 C344.33623047 491.27329102 344.33945312 489.97456055 344.34277344 488.63647461 C344.35112875 487.26472915 344.35959369 485.89298436 344.36816406 484.52124023 C344.37318071 483.13777828 344.37774333 481.7543146 344.38183594 480.37084961 C344.39363877 476.98343629 344.41010388 473.5961099 344.43066406 470.20874023 C318.89726792 469.9166609 293.3649307 469.73133352 267.8299017 469.66727257 C255.96875304 469.63512437 244.10959903 469.57025232 232.24926758 469.42358398 C221.8910653 469.29557968 211.53475677 469.23381493 201.17573935 469.24611437 C195.70825306 469.25043698 190.24508796 469.22533956 184.77851677 469.12040329 C155.50494449 468.5859891 133.93908048 472.88204436 108.22643089 487.14416122 C103.35849556 489.83222887 98.31745994 492.07859814 93.20410156 494.25561523 C91.74892626 494.89714991 90.2943676 495.5400879 88.84082031 496.18530273 C87.49584989 496.77663435 86.15079791 497.36778048 84.80566406 497.95874023 C81.93779008 499.22281334 79.07078992 500.48885596 76.20410156 501.75561523 C75.54037537 502.04843384 74.87664917 502.34125244 74.19281006 502.64294434 C68.76055626 505.04600799 63.37055376 507.53289578 57.99169922 510.0534668 C50.99456139 513.20984966 42.8693806 513.52676126 35.49707031 511.33764648 C25.05586834 506.49051315 20.94451708 497.88861256 16.42382812 487.82763672 C15.54746831 485.87800723 14.65463005 483.93659445 13.75878906 481.99584961 C9.43066406 472.53620679 9.43066406 472.53620679 9.43066406 470.20874023 C7.63628906 470.30155273 7.63628906 470.30155273 5.80566406 470.39624023 C-8.59383062 470.30596127 -22.30000081 465.08561036 -32.79980469 455.13842773 C-41.52745899 445.62085328 -47.6835261 433.76405758 -47.70355701 420.72176361 C-47.70590924 420.06903115 -47.70826147 419.41629869 -47.71068498 418.74378645 C-47.71736433 416.54731395 -47.71691708 414.35090075 -47.71650696 412.15441895 C-47.71980626 410.56734518 -47.72353197 408.98027225 -47.72764844 407.3932004 C-47.73766924 403.0243964 -47.74138537 398.65560614 -47.74403775 394.28679228 C-47.74794061 389.57765335 -47.75751903 384.8685253 -47.76625061 380.15939331 C-47.78601651 368.7823363 -47.79608183 357.40527839 -47.8049784 346.02820849 C-47.80936148 340.67021804 -47.81472828 335.31222857 -47.81996727 329.95423889 C-47.83698041 312.14199784 -47.85147416 294.3297574 -47.85871601 276.51750946 C-47.8606259 271.89472961 -47.86254623 267.27194976 -47.86450195 262.64916992 C-47.86498569 261.50020235 -47.86546943 260.35123478 -47.86596783 259.16745001 C-47.87426653 240.55865063 -47.89960038 221.94991557 -47.93208263 203.34114426 C-47.96516154 184.23470872 -47.98316557 165.12830585 -47.98636025 146.02184153 C-47.98852468 135.29480915 -47.99726343 124.56787054 -48.02282143 113.84086609 C-48.04453984 104.7042677 -48.05257324 95.56778584 -48.04285464 86.43116456 C-48.03831315 81.77144588 -48.04018744 77.11196759 -48.05961609 72.45228195 C-48.07727143 68.1809006 -48.07623091 63.90993458 -48.0607188 59.63854867 C-48.05834631 58.09875595 -48.06264758 56.55893429 -48.07454745 55.01918572 C-48.18957191 39.14411494 -44.02475077 26.33625266 -33.56933594 14.20874023 C-23.98063294 5.88170868 -12.79206489 0.17284648 0 0 Z M-20.56933594 27.20874023 C-28.46079627 36.92417017 -30.01389849 45.61174429 -29.93009949 57.85070801 C-29.93140906 59.23529757 -29.93403828 60.61988641 -29.93786699 62.0044713 C-29.94455412 65.79461825 -29.9326039 69.5845094 -29.9175328 73.37462378 C-29.904551 77.46722731 -29.90896341 81.55981697 -29.91123962 85.6524353 C-29.912811 92.73833114 -29.90341595 99.82414396 -29.88652611 106.91001892 C-29.86212232 117.15493167 -29.85432942 127.39980436 -29.85056213 137.64474303 C-29.84399982 154.26733515 -29.8240446 170.88988305 -29.7956543 187.51245117 C-29.76810805 203.65763122 -29.74687723 219.80279924 -29.73413086 235.94799805 C-29.73334269 236.94355278 -29.73255452 237.93910752 -29.73174246 238.96483058 C-29.72782729 243.95934523 -29.72403618 248.95385996 -29.72030675 253.94837475 C-29.68921769 295.36852733 -29.63638785 336.78863125 -29.56933594 378.20874023 C-28.49554687 377.65444336 -27.42175781 377.10014648 -26.31542969 376.52905273 C-24.87939703 375.79695765 -23.44318976 375.065205 -22.00683594 374.33374023 C-20.95012695 373.7865332 -20.95012695 373.7865332 -19.87207031 373.22827148 C2.38466135 361.94605728 31.53071169 366.64912393 54.43066406 366.20874023 C54.43066406 251.36874023 54.43066406 136.52874023 54.43066406 18.20874023 C16.93254392 13.71534157 16.93254392 13.71534157 -20.56933594 27.20874023 Z M72.43066406 60.20874023 C72.42976843 61.19128344 72.42976843 61.19128344 72.4288547 62.19367599 C72.39296126 101.0154692 72.33632309 139.83718255 72.25274311 178.65890366 C72.24272565 183.32020955 72.23288152 187.98151578 72.22314453 192.64282227 C72.22023247 194.03479633 72.22023247 194.03479633 72.21726158 195.45489109 C72.18623995 210.48092374 72.16926047 225.50694111 72.15746984 240.53299975 C72.14505913 255.95097117 72.11755953 271.36886241 72.076051 286.78678322 C72.05091332 296.30058544 72.03754698 305.81425471 72.03923449 315.32809061 C72.03926424 321.8519679 72.02463836 328.37570977 71.99849978 334.89953429 C71.98385115 338.66355532 71.97565306 342.42729862 71.98486137 346.19134331 C71.99468121 350.27447368 71.97363383 354.35686987 71.949646 358.43994141 C71.95740641 359.62672359 71.96516683 360.81350578 71.97316241 362.03625107 C71.90182407 368.88657554 71.15535996 373.4001866 67.43066406 379.20874023 C61.42483251 384.22618238 55.23487435 383.78027544 47.66503906 383.74780273 C46.43585754 383.75959564 45.20667603 383.77138855 43.94024658 383.78353882 C40.02025676 383.81874905 36.10079891 383.82795904 32.18066406 383.83374023 C28.27497242 383.85014868 24.36951583 383.8723622 20.46392822 383.90536499 C18.03865582 383.92479744 15.61327662 383.93435165 13.18792725 383.93228149 C0.82390308 384.00925726 -11.31347959 385.19645905 -20.56933594 394.20874023 C-27.92223717 403.8500444 -30.76933297 411.99058868 -29.56933594 424.20874023 C-27.44311702 433.32110702 -21.85186121 441.11289004 -14.31933594 446.58374023 C-8.27623121 450.31533149 -1.65371175 452.20874023 5.43066406 452.20874023 C5.69878906 451.42370117 5.96691406 450.63866211 6.24316406 449.82983398 C6.83097656 448.25395508 6.83097656 448.25395508 7.43066406 446.64624023 C7.80191406 445.61370117 8.17316406 444.58116211 8.55566406 443.51733398 C14.58343175 432.88083558 26.55178374 429.04278376 37.18066406 424.27124023 C39.01960711 423.43343186 40.85806073 422.59454848 42.69604492 421.75463867 C55.90384312 415.73495015 69.17333612 409.85099958 82.45239258 403.99047852 C92.90251885 399.37221481 103.26568922 394.58897619 113.59729004 389.71200562 C127.04219523 383.36579264 140.56772036 377.20732826 154.11184692 371.07632446 C159.81314539 368.49348777 165.50532789 365.8910737 171.190979 363.27397156 C174.84697622 361.59240065 178.50827861 359.92510154 182.18359375 358.28613281 C188.7595233 355.3425867 195.25299751 352.36836807 201.56973267 348.89646912 C228.58540692 334.09809626 256.00353241 332.89517417 286.40863037 332.27172852 C289.18447958 332.21387146 291.95875399 332.13318074 294.73388672 332.04858398 C296.25386332 332.01653119 297.77388248 331.98640339 299.29394531 331.95874023 C300.55118408 331.93295898 301.80842285 331.90717773 303.10375977 331.88061523 C307.96296258 332.35986735 311.22698604 333.97067141 314.61816406 337.45874023 C319.20920861 344.42446299 320.83157636 350.83635888 319.43066406 359.20874023 C315.94642781 365.50319324 310.66704324 370.22425359 305.59082031 375.24389648 C304.62158531 376.20939305 303.65279704 377.17533828 302.68443298 378.14170837 C300.14427061 380.67427258 297.59816651 383.20077863 295.05072021 385.72601318 C292.46869082 388.28760409 289.89228238 390.8548343 287.31542969 393.42163086 C278.06289037 402.63530311 278.06289037 402.63530311 273.53112793 407.10838318 C271.89790396 408.7415241 270.30919497 410.41923096 268.73950195 412.11352539 C265.93294497 414.66040833 262.95250813 416.14038344 259.51660156 417.63452148 C258.84142487 417.93933441 258.16624817 418.24414734 257.47061157 418.55819702 C255.25351173 419.55639406 253.02973365 420.53868366 250.80566406 421.52124023 C249.25044101 422.21837028 247.69576144 422.91671389 246.14160156 423.61621094 C242.89464255 425.07652136 239.64537514 426.53151419 236.39453125 427.9831543 C229.13941625 431.22876045 221.91709022 434.54597526 214.69268799 437.85922241 C211.10661629 439.50324581 207.51870905 441.14324772 203.93066406 442.78295898 C203.28070465 443.08005264 202.63074524 443.3771463 201.96109009 443.6832428 C196.45449697 446.19956103 190.94385904 448.7069236 185.43066406 451.20874023 C185.43066406 451.53874023 185.43066406 451.86874023 185.43066406 452.20874023 C237.90066406 452.20874023 290.37066406 452.20874023 344.43066406 452.20874023 C344.45644531 429.85124023 344.48222656 407.49374023 344.50878906 384.45874023 C344.53394582 370.32201324 344.56008159 356.18529831 344.59082031 342.04858398 C344.60691262 334.62394268 344.62275611 327.19930092 344.63818359 319.7746582 C344.64012753 318.84409941 344.64207147 317.91354062 344.64407432 316.95478308 C344.67509552 301.93135253 344.69206969 286.90793726 344.70385829 271.88448071 C344.71626899 256.4665093 344.7437686 241.04861806 344.78527713 225.63069725 C344.81041481 216.11689503 344.82378114 206.60322576 344.82209364 197.08938986 C344.82206388 190.56551257 344.83668977 184.0417707 344.86282834 177.51794618 C344.87747698 173.75392515 344.88567507 169.99018185 344.87646675 166.22613716 C344.86664692 162.14300679 344.8876943 158.06061059 344.91168213 153.97753906 C344.9000415 152.19736578 344.9000415 152.19736578 344.88816571 150.3812294 C344.97192042 142.33861306 345.99670343 136.63490026 351.90258789 130.74243164 C357.19333992 128.4424867 362.16974904 128.64482961 367.87988281 128.66967773 C369.08828323 128.65788483 370.29668365 128.64609192 371.54170227 128.63394165 C375.40065362 128.59869384 379.25906501 128.58951841 383.11816406 128.58374023 C386.95924681 128.56733257 390.80009049 128.54511152 394.6410675 128.51211548 C397.0273883 128.49268269 399.41381765 128.48312885 401.80021667 128.48519897 C415.59352694 128.39801493 428.29728393 126.34212037 438.43066406 116.20874023 C445.82292769 106.63078327 447.4508104 98.27197065 446.43066406 86.20874023 C445.56954082 82.83274571 444.28629186 80.14537238 442.43066406 77.20874023 C442.0065625 76.51264648 441.58246094 75.81655273 441.14550781 75.09936523 C435.37501071 66.54809934 427.3455836 62.33643066 417.43066406 60.20874023 C412.66043979 59.7969801 407.91616701 59.81613281 403.13058472 59.84797668 C401.6988963 59.84666643 400.26720858 59.84403598 398.83552468 59.84020919 C394.92448176 59.83353537 391.01368764 59.84545376 387.10267639 59.86054337 C382.87650087 59.87354456 378.65033846 59.86911139 374.42414856 59.86683655 C367.10965549 59.86526639 359.79524293 59.87464865 352.48077011 59.89155006 C341.90538953 59.91597044 331.33004774 59.92374844 320.75464202 59.92751404 C303.59519503 59.93407376 286.43579091 59.9540219 269.27636719 59.98242188 C252.6113303 60.00997486 235.94630508 60.03120238 219.28125 60.04394531 C218.25336376 60.04473348 217.22547752 60.04552165 216.16644321 60.04633371 C211.00964505 60.05024893 205.8528468 60.05404003 200.6960485 60.05776942 C157.94089066 60.08885039 115.18577958 60.14167313 72.43066406 60.20874023 Z M440.68066406 136.45874023 C418.27425715 150.83375974 386.40274448 145.72929863 362.43066406 146.20874023 C362.43066406 261.04874023 362.43066406 375.88874023 362.43066406 494.20874023 C402.01817252 498.85706077 402.01817252 498.85706077 436.75097656 484.91967773 C445.62701373 475.87850499 447.02448743 466.62610011 446.91168213 454.28829956 C446.91342929 452.8978577 446.91693685 451.50741713 446.92203879 450.11698353 C446.93093436 446.31987855 446.91505056 442.52322943 446.89492655 438.72618246 C446.87758718 434.62270787 446.88350282 430.51925717 446.88653564 426.41575623 C446.88862892 419.31404447 446.8761222 412.21248018 446.85358429 405.11080551 C446.82101996 394.84311206 446.81065274 384.57548962 446.80563232 374.30775012 C446.79688662 357.6474278 446.77029072 340.987184 446.73242188 324.3269043 C446.69568302 308.14689526 446.66738043 291.96690758 446.65039062 275.78686523 C446.64933973 274.78884895 446.64828884 273.79083267 446.6472061 272.76257347 C446.64198579 267.75561607 446.636931 262.74865853 446.63195848 257.74170089 C446.59051902 216.2306594 446.52009033 174.71970432 446.43066406 133.20874023 C444.39212682 133.20874023 442.27066232 135.36504201 440.68066406 136.45874023 Z M280.82910156 349.86499023 C279.86662506 349.93157837 278.90414856 349.9981665 277.9125061 350.06677246 C274.876657 350.27754001 271.84116739 350.49305593 268.80566406 350.70874023 C266.73146734 350.85358728 264.65724874 350.99812143 262.58300781 351.14233398 C257.53196669 351.49418933 252.48124198 351.85029982 247.43066406 352.20874023 C252.84733713 365.00263581 258.40792033 377.68734115 264.43066406 390.20874023 C271.73354071 384.06928901 278.48674454 377.44569806 285.25830078 370.73120117 C286.71558706 369.29062013 288.1782367 367.85544598 289.64599609 366.42553711 C291.77382719 364.35214441 293.88503306 362.26307429 295.99316406 360.16967773 C296.65445313 359.53105804 297.31574219 358.89243835 297.99707031 358.23446655 C298.59519531 357.63349152 299.19332031 357.03251648 299.80957031 356.41333008 C300.34138916 355.88959808 300.87320801 355.36586609 301.42114258 354.82626343 C302.67507485 353.20817128 302.67507485 353.20817128 302.09448242 351.00845337 C301.87542236 350.41454803 301.6563623 349.8206427 301.43066406 349.20874023 C294.53007205 349.12101347 287.71091437 349.36918744 280.82910156 349.86499023 Z M218.32910156 360.83764648 C217.10534821 361.40891769 217.10534821 361.40891769 215.85687256 361.99172974 C214.09371868 362.81546429 212.33175871 363.64175807 210.57086182 364.4703064 C205.8887868 366.67306741 201.19802484 368.85721397 196.50878906 371.04467773 C195.56323151 371.48645859 194.61767395 371.92823944 193.64346313 372.38340759 C185.30572654 376.27641773 176.93835352 380.10119624 168.55566406 383.89624023 C166.54825253 384.80601485 164.54093998 385.71600762 162.53363037 386.62600708 C161.19663707 387.23211964 159.85960109 387.83813806 158.52252197 388.44406128 C150.69224155 391.99395169 142.87391929 395.56996387 135.05566406 399.14624023 C133.60954162 399.80754425 132.16341533 400.46883984 130.71728516 401.13012695 C123.85782579 404.2671752 116.99921805 407.40607957 110.1413269 410.54655457 C106.92814297 412.01782302 103.71467067 413.48846096 100.50115967 414.95901489 C98.23729778 415.9953157 95.97386843 417.03255701 93.71044922 418.06982422 C92.32033556 418.70602371 90.9302 419.34217531 89.54003906 419.97827148 C88.92178253 420.26193573 88.303526 420.54559998 87.66653442 420.83786011 C83.61297472 422.69101703 79.53255366 424.46619094 75.43066406 426.20874023 C77.07025165 431.44146657 78.82018441 436.36070659 81.43066406 441.20874023 C89.83274385 438.02441393 97.96304317 434.28258086 106.11804199 430.52340698 C108.4603013 429.44509608 110.80494812 428.37214912 113.15039062 427.30078125 C119.60911006 424.34928496 126.06451314 421.39536432 132.47753906 418.34545898 C133.29867187 417.96164062 134.11980469 417.57782227 134.96582031 417.18237305 C136.381406 416.52014359 137.79102764 415.84491025 139.19238281 415.15307617 C143.63015878 413.10072206 146.70340866 413.07069727 151.43066406 414.20874023 C153.82283016 415.80351763 154.31354371 416.86638843 155.24316406 419.58374023 C155.47081794 422.77089449 154.97264653 424.41848625 153.43066406 427.20874023 C150.06125058 430.19790005 146.09731599 431.84147514 142.00878906 433.61499023 C141.2793811 433.93653076 140.54997314 434.25807129 139.79846191 434.58935547 C138.23636072 435.27743074 136.67325808 435.96323617 135.10925293 436.64697266 C131.03485085 438.428282 126.96756981 440.22572298 122.89941406 442.02124023 C121.68665802 442.55569763 121.68665802 442.55569763 120.44940186 443.10095215 C113.33101392 446.24183573 106.24813806 449.4549358 99.18066406 452.70874023 C98.17680664 453.17086914 97.17294922 453.63299805 96.13867188 454.10913086 C93.90182895 455.14053279 91.66571958 456.17347215 89.43066406 457.20874023 C89.89263198 458.63545588 90.35817704 460.06101352 90.82519531 461.48608398 C91.08405518 462.28006592 91.34291504 463.07404785 91.60961914 463.89208984 C92.64045632 466.80068753 93.96903347 469.49428342 95.43066406 472.20874023 C100.07484448 470.76140085 104.4461795 468.91537234 108.84472656 466.85717773 C109.55928513 466.52633179 110.27384369 466.19548584 111.01005554 465.85461426 C112.55265342 465.14036977 114.09466252 464.42485257 115.63613892 463.70819092 C129.2808238 457.36695687 142.97689406 451.15608318 156.74316406 445.08374023 C169.41504041 439.48908185 181.99234914 433.72213305 194.51635742 427.80444336 C205.77291757 422.48956271 217.09687653 417.32995955 228.44702148 412.21826172 C235.51788002 409.02799681 242.53122673 405.75917319 249.43066406 402.20874023 C248.76753402 398.66602603 247.88405167 395.67251345 246.36816406 392.39624023 C246.0059375 391.60604492 245.64371094 390.81584961 245.27050781 390.00170898 C244.99335938 389.4100293 244.71621094 388.81834961 244.43066406 388.20874023 C239.61092114 388.78388309 235.87613762 390.2049977 231.51269531 392.30639648 C230.8616835 392.61677353 230.21067169 392.92715057 229.53993225 393.24693298 C228.15334145 393.90836997 226.76821439 394.57288293 225.38446045 395.24023438 C221.79324476 396.96935718 218.18755855 398.66779397 214.58300781 400.36889648 C213.87589661 400.70313629 213.1687854 401.0373761 212.44024658 401.38174438 C206.76016968 404.06319738 201.06621701 406.70371624 195.30566406 409.20874023 C194.57452393 409.54010986 193.84338379 409.87147949 193.09008789 410.21289062 C188.80101644 412.04183478 185.93388943 412.51071597 181.43066406 411.20874023 C178.59730028 409.45010064 178.40178573 408.10477823 177.49316406 404.83374023 C177.43066406 401.20874023 177.43066406 401.20874023 178.93164062 398.72973633 C182.09624009 395.53731213 185.27516184 394.03716693 189.35253906 392.24780273 C190.13018616 391.89414642 190.90783325 391.54049011 191.70904541 391.17611694 C194.19419954 390.04958448 196.68711793 388.94155332 199.18066406 387.83374023 C200.81010625 387.09794677 202.43901796 386.36097736 204.06738281 385.62280273 C210.4078634 382.7580702 216.74837259 379.90173411 223.16699219 377.21557617 C223.91015686 376.9013974 224.65332153 376.58721863 225.41900635 376.26351929 C226.81978957 375.67363951 228.22440601 375.09275459 229.63323975 374.52236938 C231.26871849 373.83155316 232.85597624 373.02872562 234.43066406 372.20874023 C235.79982195 369.19554267 235.79982195 369.19554267 234.21582031 366.29077148 C233.36310547 364.67235352 233.36310547 364.67235352 232.49316406 363.02124023 C231.92726563 361.93456055 231.36136719 360.84788086 230.77832031 359.72827148 C230.11123047 358.48110352 230.11123047 358.48110352 229.43066406 357.20874023 C225.23368147 357.20874023 222.05034605 359.07431925 218.32910156 360.83764648 Z M57.43066406 434.20874023 C55.15631659 435.07261163 53.00883187 435.99706922 50.81347656 437.03295898 C49.83312943 437.48696831 49.83312943 437.48696831 48.83297729 437.95014954 C47.44752194 438.59449958 46.06394976 439.24291169 44.68212891 439.89501953 C42.57652429 440.88641844 40.46328951 441.8598745 38.34863281 442.83178711 C37.00307902 443.46027138 35.65801063 444.08979614 34.31347656 444.72045898 C33.68418243 445.00918381 33.05488831 445.29790863 32.40652466 445.59538269 C28.77855125 447.32557452 25.81683097 448.93008011 23.43066406 452.20874023 C22.60447617 457.33444972 24.45612161 461.34020579 26.57128906 465.90795898 C26.89474304 466.62482376 27.21819702 467.34168854 27.55145264 468.08027649 C28.23530414 469.58794411 28.92481072 471.09305805 29.61962891 472.59570312 C30.67890142 474.89241846 31.71398729 477.19897414 32.74707031 479.50756836 C33.41622013 480.97501499 34.08674692 482.44183468 34.75878906 483.90795898 C35.06625061 484.59548752 35.37371216 485.28301605 35.69049072 485.99137878 C37.39790055 489.63995712 38.79522415 492.31045346 42.43066406 494.20874023 C51.1276572 494.42992521 58.35335028 490.35689594 65.99316406 486.64624023 C67.30052703 486.02327732 68.60846617 485.40152207 69.91699219 484.78100586 C73.09498098 483.27078577 76.26485676 481.74436214 79.43066406 480.20874023 C74.59451162 468.72808761 69.63688386 457.30520613 64.49316406 445.95874023 C64.02096436 444.90557617 63.54876465 443.85241211 63.06225586 442.76733398 C62.61793213 441.7940918 62.1736084 440.82084961 61.71582031 439.81811523 C61.32273682 438.95154297 60.92965332 438.0849707 60.5246582 437.19213867 C59.58833058 435.05124202 59.58833058 435.05124202 57.43066406 434.20874023 Z " fill="#000000" transform="translate(47.5693359375,-0.208740234375)"/>
<path d="M0 0 C5.63711822 4.77929588 9.48722569 10.9225494 12.875 17.4375 C12.875 18.0975 12.875 18.7575 12.875 19.4375 C19.475 19.4375 26.075 19.4375 32.875 19.4375 C33.865 16.9625 33.865 16.9625 34.875 14.4375 C38.65836343 7.1442693 42.17635466 1.68467821 49.75 -1.9375 C58.67604744 -3.72270949 64.3924844 0.07781623 71.875 4.4375 C73.34788464 5.24523278 74.82333412 6.04829938 76.30078125 6.84765625 C77.08533691 7.2744165 77.86989258 7.70117676 78.67822266 8.14086914 C80.22694101 8.9831017 81.7773099 9.82230882 83.32958984 10.65795898 C99.1885349 19.37810471 99.1885349 19.37810471 101.875 27.4375 C103.28291246 35.63822722 101.09202167 40.90509737 96.63305664 47.57739258 C94.95165502 50.15648224 93.86109804 51.86838837 93.9375 54.99609375 C95.04279796 57.87447386 96.39622018 60.45417704 97.9375 63.125 C100.875 68.23279412 100.875 68.23279412 100.875 70.4375 C101.72094727 70.4060791 101.72094727 70.4060791 102.58398438 70.37402344 C105.18080249 70.29001499 107.77733362 70.23857771 110.375 70.1875 C111.261875 70.15398437 112.14875 70.12046875 113.0625 70.0859375 C119.2215939 69.99536259 123.88216804 70.67929291 128.875 74.4375 C133.94511454 80.18226884 134.60805359 85.63855131 134.50390625 93.0703125 C134.50631821 94.06578094 134.50873016 95.06124939 134.51121521 96.08688354 C134.51024054 98.17954515 134.49693844 100.27223377 134.47192383 102.36474609 C134.43752193 105.56046258 134.45130938 108.75342432 134.47070312 111.94921875 C134.46380638 113.98959505 134.45413555 116.02996425 134.44140625 118.0703125 C134.44636612 119.0204422 134.45132599 119.9705719 134.45643616 120.94949341 C134.35620491 126.6120969 133.68758918 129.96593939 129.875 134.4375 C125.83006157 138.00089814 123.65072403 139.58204728 118.296875 139.3671875 C108.06126073 138.72227754 108.06126073 138.72227754 99.2578125 142.7734375 C97.77690788 145.63549668 96.80849383 148.35949331 95.875 151.4375 C94.91815569 153.12931168 93.92965509 154.80487009 92.875 156.4375 C93.5246875 157.46488281 94.174375 158.49226562 94.84375 159.55078125 C103.9768803 174.48949527 103.9768803 174.48949527 101.875 183.4375 C98.80628112 193.58787785 85.70118636 198.39685982 77.25244141 203.24389648 C75.4795407 204.261746 73.7103526 205.28584344 71.94140625 206.31054688 C64.24431678 210.74233834 58.87920144 213.42276216 49.875 212.4375 C44.94167717 210.72479924 41.87102369 207.62242198 38.875 203.4375 C38.44960938 202.41011719 38.02421875 201.38273438 37.5859375 200.32421875 C36.05417872 196.65605956 34.7103853 194.24710907 31.875 191.4375 C26.7655856 189.35712794 21.26142108 189.34855937 15.92871094 190.55566406 C10.86507769 192.72992028 8.91262692 197.89912189 6.796875 202.66796875 C4.91891495 206.81668513 2.58943558 208.8285512 -1.125 211.4375 C-6.43538152 213.20762717 -11.57794485 213.46626827 -16.83837891 211.34155273 C-24.35592017 207.42949545 -31.75789976 203.35984167 -39.0625 199.0625 C-40.15884766 198.44117188 -41.25519531 197.81984375 -42.38476562 197.1796875 C-49.69891773 192.86518461 -54.40192146 189.0584164 -56.9296875 180.8125 C-57.13472556 173.8867701 -54.83559604 170.18956314 -51.125 164.625 C-47.88889258 159.88539843 -47.88889258 159.88539843 -47.46777344 154.38623047 C-49.26901528 149.88094254 -52.10688958 146.19651839 -55.125 142.4375 C-55.455 141.7775 -55.785 141.1175 -56.125 140.4375 C-57.03209717 140.42348145 -57.03209717 140.42348145 -57.95751953 140.40917969 C-60.7224788 140.35518278 -63.48579906 140.27159606 -66.25 140.1875 C-67.20132813 140.17332031 -68.15265625 140.15914062 -69.1328125 140.14453125 C-75.08494836 139.93785987 -78.56676483 139.35281452 -83.125 135.4375 C-86.53686336 131.56457402 -88.23813801 129.23455039 -88.30200195 124.09887695 C-88.32125481 122.75156242 -88.32125481 122.75156242 -88.34089661 121.37702942 C-88.34828354 120.40311752 -88.35567047 119.42920563 -88.36328125 118.42578125 C-88.371353 117.42419479 -88.37942474 116.42260834 -88.38774109 115.39067078 C-88.40158967 113.26640558 -88.41230835 111.14211807 -88.42016602 109.01782227 C-88.43733913 105.78032719 -88.48121414 102.54386374 -88.52539062 99.30664062 C-88.53552102 97.24219501 -88.54403603 95.1777407 -88.55078125 93.11328125 C-88.56828934 92.14949051 -88.58579742 91.18569977 -88.60383606 90.19270325 C-88.58419918 84.05798622 -87.74968283 80.43817812 -84.125 75.4375 C-79.31019584 71.62578004 -75.61949498 70.29902368 -69.578125 70.33984375 C-68.73378906 70.34306641 -67.88945312 70.34628906 -67.01953125 70.34960938 C-65.71048828 70.36217773 -65.71048828 70.36217773 -64.375 70.375 C-63.48683594 70.37951172 -62.59867188 70.38402344 -61.68359375 70.38867188 C-59.49732671 70.400426 -57.31119821 70.41685751 -55.125 70.4375 C-54.85042969 69.53 -54.57585937 68.6225 -54.29296875 67.6875 C-53.25692558 64.80459727 -52.21500073 62.88220014 -50.4375 60.4375 C-48.7836654 57.82877281 -48.14220523 56.70131351 -47.9375 53.5625 C-49.43099207 49.63225771 -51.48977268 46.24406968 -53.75 42.70703125 C-56.7115264 37.81883 -56.59342976 32.98926014 -56.125 27.4375 C-52.81710608 17.69759012 -42.45202408 13.55445505 -34.0625 8.8125 C-32.879241 8.13857587 -31.69629567 7.4641007 -30.51367188 6.7890625 C-28.33879211 5.54840091 -26.16244424 4.31030662 -23.98413086 3.07568359 C-22.10677545 2.00002355 -20.24348348 0.89936079 -18.39672852 -0.22802734 C-12.47315196 -3.7076909 -5.96457431 -2.98228715 0 0 Z M-20.71679688 22.25415039 C-22.48283003 23.24041124 -24.25298132 24.21897256 -26.0234375 25.19726562 C-27.1371875 25.81923828 -28.2509375 26.44121094 -29.3984375 27.08203125 C-30.42372559 27.65284424 -31.44901367 28.22365723 -32.50537109 28.81176758 C-34.74728882 30.20309378 -36.38860282 31.47579434 -38.125 33.4375 C-37.67846069 34.15498413 -37.67846069 34.15498413 -37.22290039 34.88696289 C-35.8653029 37.08387958 -34.52639742 39.29164122 -33.1875 41.5 C-32.71892578 42.25216797 -32.25035156 43.00433594 -31.76757812 43.77929688 C-29.03127695 48.32667509 -27.27334128 51.99607213 -27.125 57.4375 C-28.34187004 60.0659393 -29.49088655 62.0967429 -31.125 64.4375 C-35.24598873 70.40543046 -38.67408588 76.34090013 -41.73046875 82.93359375 C-43.125 85.4375 -43.125 85.4375 -46.125 87.4375 C-48.66870117 87.75634766 -48.66870117 87.75634766 -51.66796875 87.8515625 C-53.11852661 87.90497803 -53.11852661 87.90497803 -54.59838867 87.95947266 C-55.82404541 87.99347168 -57.04970215 88.0274707 -58.3125 88.0625 C-62.210625 88.18625 -66.10875 88.31 -70.125 88.4375 C-70.125 99.3275 -70.125 110.2175 -70.125 121.4375 C-63.11031364 121.68647517 -63.11031364 121.68647517 -56.0949707 121.91552734 C-55.21413818 121.9511377 -54.33330566 121.98674805 -53.42578125 122.0234375 C-52.08253784 122.07056885 -52.08253784 122.07056885 -50.7121582 122.11865234 C-47.83969827 122.47266128 -45.69769649 123.11020444 -43.125 124.4375 C-41.62768909 126.9506336 -40.42211985 129.28214767 -39.25 131.9375 C-36.49340379 137.85535465 -33.54891631 143.08248943 -29.47265625 148.2265625 C-27.72127551 151.0998422 -27.24186308 153.0651653 -27.125 156.4375 C-28.41796875 159.8046875 -28.41796875 159.8046875 -30.3125 163.3125 C-30.92480469 164.46492187 -31.53710938 165.61734375 -32.16796875 166.8046875 C-32.4829834 167.38444336 -32.79799805 167.96419922 -33.12255859 168.56152344 C-34.86234591 171.81737481 -36.48582877 175.13008133 -38.125 178.4375 C-34.31670765 180.55596237 -30.50810715 182.67386934 -26.69921875 184.79125977 C-25.40323516 185.51180976 -24.10733625 186.23251207 -22.81152344 186.95336914 C-20.95009183 187.98884392 -19.08835747 189.02377248 -17.2265625 190.05859375 C-16.10588379 190.6817749 -14.98520508 191.30495605 -13.83056641 191.94702148 C-12.27616574 192.80333046 -10.71230627 193.64384687 -9.125 194.4375 C-8.81796143 193.87764404 -8.51092285 193.31778809 -8.19458008 192.7409668 C-6.78858428 190.19486022 -5.36334545 187.66003973 -3.9375 185.125 C-3.45474609 184.24392578 -2.97199219 183.36285156 -2.47460938 182.45507812 C2.35159608 173.93633963 2.35159608 173.93633963 6.875 172.4375 C9.60505321 172.40851854 12.05751702 172.52100786 14.75 172.8125 C21.92323355 173.44433114 28.53282392 173.2281885 35.703125 172.3984375 C39.63810859 172.44689789 40.89899198 172.84242101 43.875 175.4375 C46.04353119 178.54351194 47.86851875 181.80517707 49.6875 185.125 C50.44063477 186.46401367 50.44063477 186.46401367 51.20898438 187.83007812 C52.44230209 190.02655825 53.66370701 192.22882117 54.875 194.4375 C64.57926252 189.17160276 74.228454 183.80820213 83.875 178.4375 C82.9818894 176.62365682 82.08533836 174.81150763 81.1875 173 C80.37539063 171.35644531 80.37539063 171.35644531 79.546875 169.6796875 C77.76174328 166.21786665 75.78823301 162.92841663 73.66015625 159.66796875 C72.4621492 156.26467508 73.02065933 153.91106928 73.875 150.4375 C75.73046875 147.3671875 75.73046875 147.3671875 78.0625 144.3125 C82.15756254 138.80072767 84.87673894 133.43614784 87.390625 127.01953125 C89.24094678 123.80094521 90.39410823 123.53635333 93.875 122.4375 C96.4621582 122.11865234 96.4621582 122.11865234 99.17578125 122.0234375 C100.49703003 121.97002197 100.49703003 121.97002197 101.8449707 121.91552734 C102.94800537 121.88152832 104.05104004 121.8475293 105.1875 121.8125 C108.714375 121.68875 112.24125 121.565 115.875 121.4375 C115.875 110.5475 115.875 99.6575 115.875 88.4375 C108.20207211 88.30675261 108.20207211 88.30675261 100.52856445 88.22973633 C92.70314232 88.00102246 92.70314232 88.00102246 88.85546875 85.3828125 C86.49826885 81.87723316 84.62787363 78.33708312 82.875 74.5 C80.3958605 69.10333657 77.7552247 64.93725638 73.875 60.4375 C72.48465383 56.70551818 72.38111802 54.56389751 73.98828125 50.8984375 C74.96721475 49.10246131 75.98235492 47.32556405 77.0390625 45.57421875 C79.53874442 41.30348559 81.69621833 36.87852693 83.875 32.4375 C79.98246632 30.14019365 76.08542018 27.85065303 72.1875 25.5625 C71.08470703 24.91152344 69.98191406 24.26054688 68.84570312 23.58984375 C67.77900391 22.96464844 66.71230469 22.33945313 65.61328125 21.6953125 C64.63399658 21.1192627 63.65471191 20.54321289 62.64575195 19.94970703 C60.10050375 18.5605743 57.58967726 17.44710862 54.875 16.4375 C54.52195801 17.03812256 54.16891602 17.63874512 53.80517578 18.25756836 C52.20880189 20.96657442 50.60452138 23.67081237 49 26.375 C48.44441406 27.32052734 47.88882813 28.26605469 47.31640625 29.24023438 C46.51396484 30.58891602 46.51396484 30.58891602 45.6953125 31.96484375 C45.20305176 32.79749756 44.71079102 33.63015137 44.20361328 34.48803711 C42.875 36.4375 42.875 36.4375 40.875 37.4375 C38.22313075 37.57283755 35.59875031 37.65014544 32.9453125 37.67578125 C32.15857147 37.683853 31.37183044 37.69192474 30.56124878 37.70024109 C28.89518436 37.71407904 27.22909161 37.7248025 25.56298828 37.73266602 C23.016706 37.74988701 20.47171963 37.79377417 17.92578125 37.83789062 C16.30730122 37.84801702 14.68881015 37.85653329 13.0703125 37.86328125 C11.92950729 37.88954338 11.92950729 37.88954338 10.76565552 37.91633606 C7.33134714 37.902264 5.30537348 37.76116193 2.52172852 35.66772461 C0.99213473 33.59613984 -0.39893045 31.56806506 -1.66796875 29.328125 C-2.10173828 28.57402344 -2.53550781 27.81992188 -2.98242188 27.04296875 C-3.42134766 26.26566406 -3.86027344 25.48835938 -4.3125 24.6875 C-5.19855533 23.12834685 -6.08769978 21.57094366 -6.98046875 20.015625 C-7.36871826 19.32887695 -7.75696777 18.64212891 -8.15698242 17.93457031 C-8.47642822 17.44053711 -8.79587402 16.94650391 -9.125 16.4375 C-12.79735498 16.4375 -17.55279052 20.48425149 -20.71679688 22.25415039 Z " fill="#000000" transform="translate(233.125,99.5625)"/>
<path d="M0 0 C2.25726011 1.89121793 3.68646424 3.37292849 5 6 C5.10201509 8.5076627 5.14338736 10.98781116 5.14044189 13.4959259 C5.14341302 14.27814898 5.14638414 15.06037205 5.1494453 15.86629885 C5.15815485 18.50177827 5.15964244 21.13721239 5.16113281 23.77270508 C5.1657594 25.65649005 5.17078384 27.54027408 5.17617798 29.42405701 C5.18931955 34.55220956 5.19575039 39.68034902 5.20018864 44.80851579 C5.2031166 48.01034806 5.20722088 51.21217672 5.21169281 54.41400719 C5.22537252 64.42584397 5.23503679 74.43767254 5.2388947 84.44951802 C5.24337642 96.01769318 5.26092766 107.58575024 5.2898953 119.15388948 C5.31149291 128.08811906 5.32159796 137.02231538 5.32293582 145.9565708 C5.32398525 151.29604767 5.3299223 156.6354136 5.34775543 161.97486305 C5.36420286 166.99729159 5.36640782 172.01952538 5.35761642 177.04197121 C5.35684426 178.88625611 5.36121236 180.73055133 5.37107468 182.57481003 C5.38374264 185.09114783 5.37794567 187.60679058 5.36749268 190.12312317 C5.37554908 190.8542568 5.38360548 191.58539042 5.39190602 192.33867961 C5.34915673 196.73394134 4.71849376 199.5169071 2 203 C-1.75047482 205.50031654 -3.55856266 205.53603554 -8 205 C-11.58571603 202.29615074 -12.86190912 200.80795466 -13.62641239 196.33492947 C-13.65250482 194.88509628 -13.65121295 193.43461112 -13.62818909 191.98472595 C-13.63528347 191.18289983 -13.64237786 190.3810737 -13.64968723 189.55494982 C-13.66727631 186.87069826 -13.64915861 184.18789298 -13.63110352 181.50366211 C-13.63624196 179.57839804 -13.64352267 177.65313866 -13.65278625 175.72789001 C-13.67131673 170.50063466 -13.65835166 165.27388868 -13.63869596 160.04665446 C-13.62232419 154.5792383 -13.63112019 149.11185478 -13.63621521 143.64442444 C-13.64073742 134.4636317 -13.62485738 125.28304263 -13.59692383 116.10229492 C-13.5648619 105.48270045 -13.56489098 94.86347313 -13.5821386 84.24385256 C-13.59799196 74.03335136 -13.59127839 63.82298498 -13.57420158 53.6124897 C-13.56732262 49.26445497 -13.56837219 44.91652804 -13.57574654 40.5684948 C-13.58339723 35.45071534 -13.57132294 30.33335472 -13.54389763 25.21564674 C-13.53700031 23.33548094 -13.53693019 21.45527612 -13.54411316 19.57511139 C-13.55277703 17.01236745 -13.53690486 14.45092526 -13.5146637 11.88829041 C-13.52290446 11.1407265 -13.53114523 10.3931626 -13.53963572 9.62294525 C-13.48464681 6.20034528 -13.25124777 4.3310421 -11.15533352 1.56948185 C-7.23869077 -1.28255921 -4.56896667 -1.21217483 0 0 Z " fill="#000000" transform="translate(47,94)"/>
<path d="M0 0 C7.94091705 6.77703496 11.76709977 14.51879641 12.91796875 24.734375 C13.51961835 34.92401504 10.81826442 43.1051903 4.28125 51 C-1.86669063 57.52237317 -8.42335277 61.42850647 -17.43359375 62.03515625 C-27.96586215 62.32270471 -35.91716006 61.36557648 -44.26953125 54.359375 C-52.26313632 46.76705532 -56.42229028 39.03578497 -56.98828125 27.9140625 C-56.68152932 17.71456075 -53.18880412 9.47203081 -46.265625 2.05078125 C-33.21140673 -10.09479073 -14.20238709 -10.1553352 0 0 Z M-35.26953125 16.984375 C-37.82456045 21.40654092 -39.32012721 25.79587788 -38.58984375 30.9453125 C-36.89454941 36.4079276 -33.50976426 39.58289346 -28.89453125 42.796875 C-25.18248638 44.65289744 -20.94580075 44.24563101 -16.89453125 43.796875 C-11.97663387 41.33792631 -8.36417268 38.09813851 -6.1015625 33.015625 C-4.52164149 28.18968445 -4.94384467 24.54919012 -6.77734375 19.84375 C-9.03182995 15.71315291 -12.2552002 13.6575238 -16.39453125 11.484375 C-23.89154516 9.42269618 -29.71087509 11.86456011 -35.26953125 16.984375 Z " fill="#000000" transform="translate(277.89453125,177.203125)"/>
<path d="M0 0 C2.64365079 1.87613927 2.95241281 2.85723843 4 6 C4.25424949 9.45394084 4.23128473 12.91267423 4.25 16.375 C4.270625 17.32117188 4.29125 18.26734375 4.3125 19.2421875 C4.34096795 24.30948308 4.35534705 27.91168879 1 32 C-1.52793912 34.52793912 -3.37214165 34.35113422 -6.83203125 34.55859375 C-10.57820106 33.59336441 -11.78003005 32.18119405 -14 29 C-14.71918974 24.80034352 -14.65200401 20.68773098 -14.5625 16.4375 C-14.57345703 15.30119141 -14.58441406 14.16488281 -14.59570312 12.99414062 C-14.52164919 4.62604569 -14.52164919 4.62604569 -12.08959961 1.70727539 C-8.10805692 -1.54578315 -4.85109682 -1.13324803 0 0 Z " fill="#000000" transform="translate(48,43)"/>
</svg>
