<?xml version="1.0" encoding="UTF-8"?>
<svg version="1.1" xmlns="http://www.w3.org/2000/svg" width="1668" height="2048">
<path d="M0 0 C1.83580155 -0.00406634 3.671603 -0.00818366 5.50740433 -0.01235008 C14.17697534 -0.03134738 22.84653832 -0.04557019 31.51612604 -0.05396205 C40.34270165 -0.06266038 49.16909958 -0.08172831 57.99560547 -0.1184082 C105.82621059 -0.31276581 153.28571208 0.35857811 200.9765625 4.23828125 C202.84944598 4.38777447 204.72233005 4.53726025 206.59521484 4.68673706 C216.25562608 5.46747394 225.89719927 6.37913907 235.5390625 7.36328125 C238.14247851 7.61820691 240.74599557 7.8721025 243.34960938 8.125 C254.27678732 9.19624254 265.17833655 10.34561324 276.06420898 11.77783203 C279.86001581 12.22456474 283.64986754 12.55958503 287.45838928 12.87142944 C301.905769 14.06561149 316.16076925 16.23944985 330.4765625 18.48828125 C333.11021091 18.89825459 335.74390994 19.30788725 338.37768555 19.71704102 C342.30537877 20.32762525 346.23285219 20.93956697 350.15983582 21.55470276 C357.31922225 22.67557231 364.48174663 23.76595197 371.65234375 24.8125 C393.79846771 28.07673662 415.56338432 32.65448737 437.396698 37.57992554 C442.62023407 38.74793658 447.84395429 39.79077266 453.11328125 40.73046875 C462.33464666 42.41075182 471.35373616 44.79111255 480.4140625 47.17578125 C483.72453852 48.0418471 487.03589579 48.90448496 490.34765625 49.765625 C491.15905563 49.97737366 491.97045502 50.18912231 492.80644226 50.4072876 C498.07955549 51.77467647 503.36918012 53.03718946 508.6796875 54.25 C517.00282284 56.16573248 525.13565443 58.58122593 533.2890625 61.11328125 C534.73893431 61.55952326 536.18896915 62.00523587 537.63916016 62.45043945 C539.79035414 63.11087391 541.94144053 63.7716264 544.09185791 64.43458557 C548.86649957 65.90519703 553.65404115 67.3257458 558.45043945 68.72387695 C566.55173806 71.09207558 574.4793534 73.77268519 582.36279297 76.79174805 C586.13296498 78.23011123 589.88549406 79.52869299 593.765625 80.640625 C599.75082989 82.39510814 605.4610239 84.74825987 611.2265625 87.11328125 C617.9581872 89.84550293 624.67033561 92.55698155 631.5390625 94.92578125 C637.90679593 97.13690832 644.01936546 99.80572457 650.16796875 102.5546875 C653.42790456 104.00976963 656.72268409 105.3536814 660.0390625 106.67578125 C665.37600653 108.8699387 670.36805263 111.53613211 675.42138672 114.30322266 C679.10139776 116.29917672 682.75376025 118.03409138 686.6640625 119.55078125 C695.08353509 122.90488009 702.8663371 127.56246529 710.75195312 131.99462891 C713.41411172 133.48289009 716.09922859 134.92575025 718.7890625 136.36328125 C731.99689431 143.58246883 744.55670208 151.75102961 756.9765625 160.23828125 C757.78673828 160.79080566 758.59691406 161.34333008 759.43164062 161.91259766 C761.82822747 163.55349114 764.21643698 165.20578272 766.6015625 166.86328125 C767.71313721 167.62668823 767.71313721 167.62668823 768.84716797 168.40551758 C770.59416187 169.63175284 772.29131397 170.92848049 773.9765625 172.23828125 C773.9765625 172.89828125 773.9765625 173.55828125 773.9765625 174.23828125 C774.70230469 174.480625 775.42804688 174.72296875 776.17578125 174.97265625 C779.33779801 176.40151738 781.27843936 178.10339206 783.7890625 180.48828125 C786.79520926 183.28065757 789.76559966 185.91231081 793.1015625 188.30078125 C796.75766552 190.95843044 799.82699638 193.99015031 802.96875 197.23046875 C804.93687637 199.19859512 806.97932021 201.00131345 809.1015625 202.80078125 C812.29092213 205.53451807 814.95277183 208.45003089 817.61328125 211.69140625 C819.05348076 213.42325319 819.05348076 213.42325319 821.4765625 215.17578125 C824.93629042 218.03005678 827.58755654 221.44542642 829.9765625 225.23828125 C829.9765625 225.89828125 829.9765625 226.55828125 829.9765625 227.23828125 C830.9665625 227.56828125 831.9565625 227.89828125 832.9765625 228.23828125 C835.46377665 231.15371859 837.5763406 234.34305952 839.75830078 237.49169922 C841.03148105 239.31701619 842.32881491 241.12345732 843.62890625 242.9296875 C849.85201958 251.66513545 855.14210563 260.62658543 859.95214844 270.20849609 C860.94366754 272.17310281 861.95987005 274.12274372 862.984375 276.0703125 C865.9168551 281.69396891 868.55252924 287.18060871 870.171875 293.328125 C870.82597632 295.6936856 871.55202693 297.98395585 872.34375 300.3046875 C879.55661109 321.58284259 881.58365194 341.87420502 881.49663408 364.28636071 C881.4872484 367.86952056 881.50137797 371.45260968 881.51227325 375.0357548 C881.52814231 381.29329675 881.52940747 387.550704 881.52067566 393.80825806 C881.50772619 403.11359994 881.51782173 412.41882149 881.53217521 421.72415624 C881.55702983 438.34815693 881.55901772 454.97210049 881.55090109 471.59611434 C881.54381476 486.1407399 881.54378405 500.68534334 881.55076408 515.22996902 C881.55167543 517.18466854 881.55258619 519.13936806 881.55349637 521.09406758 C881.55487956 524.0399346 881.55627066 526.98580161 881.55768251 529.93166861 C881.57065101 557.2951734 881.57579238 584.65867082 881.5641489 612.02217674 C881.56371093 613.05232308 881.56327296 614.08246942 881.56282172 615.14383231 C881.55921525 623.50821765 881.55538031 631.87260288 881.55153079 640.23698811 C881.53667524 672.88051657 881.54547994 705.52396138 881.57348633 738.16748047 C881.60492369 774.87984693 881.61988216 811.59216392 881.60968632 848.30454409 C881.60864959 852.21952541 881.60766236 856.13450673 881.6067028 860.04948807 C881.60645392 861.01339163 881.60620503 861.97729519 881.6059486 862.97040795 C881.60251153 877.5075863 881.61180283 892.04472087 881.62747383 906.58189011 C881.64525209 923.11143154 881.64535995 939.64086651 881.62212218 956.17040341 C881.60963623 965.41430719 881.61084164 974.6579662 881.63200304 983.90185555 C881.64475981 990.08323616 881.63920163 996.26442891 881.61901823 1002.44578918 C881.60803767 1005.96292921 881.60469791 1009.47958928 881.62369353 1012.99670605 C881.69920336 1030.65470906 880.99242609 1046.03934129 871.7890625 1061.61328125 C871.22529907 1062.59361328 871.22529907 1062.59361328 870.65014648 1063.59375 C867.00884261 1069.65785533 862.56312957 1074.84506404 856.9765625 1079.23828125 C856.3165625 1079.23828125 855.6565625 1079.23828125 854.9765625 1079.23828125 C854.6465625 1080.22828125 854.3165625 1081.21828125 853.9765625 1082.23828125 C839.19323626 1093.80178108 819.11512933 1098.96121866 800.609375 1096.796875 C780.75228768 1093.95005986 762.40447417 1084.16707105 749.9765625 1068.23828125 C740.33448969 1054.07424377 735.79105389 1038.13966512 735.85351467 1021.05429077 C735.85236083 1020.26671975 735.85120698 1019.47914873 735.85001817 1018.66771191 C735.84737775 1016.03675381 735.85185237 1013.40585728 735.85630798 1010.77490234 C735.85587176 1008.86646479 735.8549959 1006.95802729 735.85371882 1005.04959011 C735.851484 999.81153172 735.85548131 994.5734938 735.86049688 989.33543801 C735.86481571 983.68453742 735.86335393 978.03363798 735.8625946 972.38273621 C735.86207028 962.59419481 735.86520755 952.80566008 735.87083244 943.01712036 C735.8789598 928.86453753 735.88156393 914.71195793 735.88282043 900.55937302 C735.88500901 877.5976854 735.89165523 854.63600199 735.90112305 831.67431641 C735.91030947 809.36930357 735.91739211 787.06429169 735.92163086 764.75927734 C735.92176239 764.07156978 735.92189391 763.38386221 735.92202942 762.67531502 C735.92334796 755.76898462 735.92462377 748.86265422 735.92586828 741.9563238 C735.93630687 684.05030721 735.95395088 626.14429432 735.9765625 568.23828125 C735.10723587 568.77698853 734.23790924 569.3156958 733.34223938 569.87072754 C732.17782455 570.59031427 731.01336819 571.30983379 729.84887695 572.02929688 C729.2787513 572.38284241 728.70862564 572.73638794 728.12122345 573.10064697 C722.57992401 576.52081662 716.90295459 579.66210963 711.1640625 582.73828125 C710.12797852 583.29652588 709.09189453 583.85477051 708.02441406 584.42993164 C700.89402966 588.25468223 693.71772995 591.9684584 686.453125 595.53125 C683.15226819 597.15200778 679.87718598 598.81729864 676.6015625 600.48828125 C672.4181342 602.58279555 668.21183017 604.37493847 663.84765625 606.05078125 C660.11117322 607.59621097 656.49369667 609.35928358 652.8515625 611.11328125 C646.71099027 614.05345618 640.54051265 616.63701361 634.13818359 618.9465332 C628.82952869 620.87418093 623.65947826 623.05936552 618.4765625 625.30078125 C612.07414304 628.04972294 605.69200941 630.40526227 599.01318359 632.38183594 C593.95190682 633.89061763 589.03709895 635.67421666 584.1015625 637.55078125 C573.30277553 641.6198409 562.28884161 644.93214173 551.24121094 648.25195312 C548.07824535 649.20756044 544.92118261 650.18039434 541.765625 651.16015625 C540.27047363 651.62228516 540.27047363 651.62228516 538.74511719 652.09375 C536.90899894 652.66137886 535.07361924 653.23140669 533.23925781 653.8046875 C527.35494703 655.61113754 521.42193203 657.15685287 515.44664001 658.62748718 C510.15838736 659.93198309 504.89118958 661.30553346 499.62890625 662.7109375 C498.43657379 663.02836411 498.43657379 663.02836411 497.22015381 663.35220337 C493.96753719 664.21838086 490.71517853 665.08543091 487.46459961 665.95922852 C478.27288708 668.42731401 469.11941471 670.69969228 459.76635742 672.48950195 C455.56043544 673.32049871 451.38480624 674.25001281 447.20703125 675.2109375 C446.46535202 675.38152176 445.72367279 675.55210602 444.95951843 675.7278595 C442.69400139 676.25060271 440.42897353 676.77541904 438.1640625 677.30078125 C414.51051135 682.77857767 414.51051135 682.77857767 404.99609375 684.0625 C398.22647341 684.99960744 391.52032374 686.20142796 384.80078125 687.4453125 C359.19527777 692.17499589 333.69340952 696.53684569 307.80601501 699.36502075 C301.14708267 700.09464677 294.49909504 700.8999052 287.8515625 701.7265625 C249.78111269 706.44866996 211.82893853 710.30435237 173.49298096 711.91001892 C167.64149902 712.15749072 161.79335896 712.44741065 155.9453125 712.765625 C155.11929031 712.81046021 154.29326813 712.85529541 153.44221497 712.90148926 C150.28822259 713.07347754 147.13428957 713.24640438 143.9805603 713.42315674 C139.49946238 713.67348731 135.0178462 713.90495864 130.53475952 714.11685181 C128.79343505 714.19950692 127.05224571 714.28504794 125.31118774 714.37313843 C101.55145346 715.54296906 77.76818682 715.4256963 53.98608398 715.42358398 C49.22562812 715.42350337 44.46526983 715.43035566 39.70483398 715.4440918 C-1.05833605 715.55982964 -41.68016474 714.5239657 -82.34765625 711.6640625 C-87.53132985 711.3128651 -92.70496066 711.09561165 -97.89794922 710.94873047 C-140.13347553 709.72034139 -182.48454314 703.52907128 -224.32641602 697.98461914 C-228.11764324 697.48336725 -231.9106614 697.00342138 -235.70678711 696.54077148 C-249.83939094 694.79953807 -263.78647397 692.39486413 -277.7734375 689.73828125 C-281.93422212 688.95341037 -286.09574432 688.17256565 -290.2578125 687.39453125 C-291.26577377 687.20552246 -292.27373505 687.01651367 -293.3122406 686.82177734 C-299.47947993 685.67623759 -305.65360874 684.64532762 -311.85546875 683.70703125 C-320.5153431 682.3886717 -329.05408603 680.64906437 -337.60571289 678.75878906 C-339.98397019 678.23319099 -342.36386276 677.71558176 -344.74414062 677.19921875 C-351.25827056 675.77900237 -357.75633873 674.33385641 -364.21484375 672.67578125 C-368.45261898 671.58925582 -372.69405109 670.70588367 -376.9921875 669.890625 C-386.62860272 668.0033709 -396.05564046 665.38848449 -405.5234375 662.80078125 C-407.3032608 662.31789982 -409.08320832 661.835476 -410.86328125 661.35351562 C-413.47824991 660.64533839 -416.09295976 659.93629171 -418.70675659 659.22380066 C-422.51929473 658.18464647 -426.33277397 657.15189608 -430.15673828 656.15551758 C-438.50388442 653.97521239 -446.70437881 651.49749429 -454.8984375 648.80078125 C-462.55567919 646.3030294 -470.20461182 643.84694246 -477.9609375 641.67578125 C-485.3205654 639.59744438 -492.39633273 636.88508859 -499.51611328 634.10473633 C-504.08602434 632.32736225 -508.61052685 630.69092659 -513.3359375 629.36328125 C-522.90423975 626.56371297 -531.9991326 622.34099169 -541.16015625 618.44726562 C-544.34486775 617.10256138 -547.54325536 615.79528266 -550.74731445 614.49755859 C-584.63718952 600.75212909 -584.63718952 600.75212909 -599.734375 591.59375 C-602.16705017 590.05457041 -602.16705017 590.05457041 -605.7109375 588.92578125 C-609.77749059 587.45250139 -613.23398482 585.39992526 -616.8984375 583.12109375 C-621.77504597 580.18293715 -626.78007329 577.47758833 -631.77880859 574.75366211 C-632.52727051 574.34253174 -633.27573242 573.93140137 -634.046875 573.5078125 C-634.71638184 573.14276611 -635.38588867 572.77771973 -636.07568359 572.40161133 C-638.17683655 571.14666098 -640.07607595 569.71807922 -642.0234375 568.23828125 C-641.9645634 627.03453315 -641.89002708 685.83074987 -641.79445122 744.62695377 C-641.78317288 751.56762719 -641.77204109 758.50830083 -641.76098633 765.44897461 C-641.75988376 766.13964843 -641.7587812 766.83032224 -641.75764522 767.54192557 C-641.72198819 789.9213702 -641.69600488 812.30081332 -641.67504781 834.68027613 C-641.65284496 858.33389184 -641.61959879 881.98746484 -641.57473594 905.64104956 C-641.54822067 919.80883667 -641.53052436 933.97657854 -641.52409146 948.14438923 C-641.51883723 957.85841512 -641.50261897 967.57238406 -641.47777184 977.28637943 C-641.46375821 982.89168249 -641.45458558 988.49688361 -641.45842934 994.10220528 C-641.46184336 999.23655823 -641.45145259 1004.37069359 -641.43020198 1009.50500198 C-641.42494035 1011.3598213 -641.4246926 1013.21466324 -641.43004187 1015.0694823 C-641.48673845 1036.96320172 -634.5211088 1051.84936821 -620.0234375 1068.23828125 C-617.77620623 1070.43922124 -615.5113167 1072.29773548 -613.0234375 1074.23828125 C-611.35677083 1075.90494792 -609.69010417 1077.57161458 -608.0234375 1079.23828125 C-600.24719791 1086.71135361 -591.81214102 1093.03177152 -583.0234375 1099.23828125 C-582.31719238 1099.7374707 -581.61094727 1100.23666016 -580.88330078 1100.75097656 C-578.74764217 1102.25425709 -576.60604785 1103.7485243 -574.4609375 1105.23828125 C-573.80657715 1105.69509277 -573.1522168 1106.1519043 -572.47802734 1106.62255859 C-568.77399709 1109.16854282 -565.05757882 1111.23947643 -561.0234375 1113.23828125 C-558.40776803 1114.83393515 -555.84566391 1116.51127288 -553.2734375 1118.17578125 C-548.20151284 1121.40614161 -543.39550337 1124.11231284 -537.70703125 1126.1171875 C-533.97859116 1127.67477455 -530.57483212 1129.70919549 -527.0859375 1131.73828125 C-521.79333012 1134.79880766 -516.70948457 1137.29519835 -510.8828125 1139.2109375 C-507.21783441 1140.52772608 -503.73145144 1142.14119011 -500.2109375 1143.80078125 C-499.58823975 1144.0942041 -498.96554199 1144.38762695 -498.32397461 1144.68994141 C-495.47421988 1146.04390938 -492.64908648 1147.43097545 -489.84375 1148.875 C-487.42417051 1150.04457513 -485.29791069 1150.82616745 -482.7109375 1151.48828125 C-473.68414267 1154.06736549 -465.0236993 1158.01472562 -456.45703125 1161.82421875 C-452.92997343 1163.27677271 -449.44794325 1164.34258521 -445.7734375 1165.36328125 C-438.02421475 1167.56520309 -430.40315288 1170.09292181 -422.7734375 1172.67578125 C-412.1614709 1176.25176004 -401.51542797 1179.5209673 -390.71923828 1182.48925781 C-387.83462309 1183.290743 -384.95819232 1184.11792618 -382.08203125 1184.94921875 C-368.30937592 1188.90908795 -354.47426027 1192.31615988 -340.4921875 1195.44824219 C-336.8295026 1196.28245167 -333.17619431 1197.15071962 -329.5234375 1198.02734375 C-328.24299561 1198.33285156 -326.96255371 1198.63835937 -325.64331055 1198.953125 C-323.22428846 1199.5313946 -320.80634408 1200.11420589 -318.38989258 1200.703125 C-310.0020516 1202.69435987 -301.58350751 1204.22561439 -293.08657837 1205.66786194 C-286.17388323 1206.84663496 -279.28879899 1208.12914433 -272.41015625 1209.4921875 C-245.29277087 1214.89147252 -245.29277087 1214.89147252 -217.8984375 1218.5078125 C-209.62145971 1219.33172508 -201.40095232 1220.55220683 -193.16650391 1221.71578979 C-126.06018489 1231.13941198 -58.16919876 1235.59250803 9.5859375 1236.47265625 C10.93128525 1236.4909846 12.27663233 1236.50936123 13.62197876 1236.52778625 C20.13972182 1236.61511863 26.6570248 1236.683694 33.17529297 1236.72143555 C55.92972706 1236.91975252 75.78643464 1239.32538304 93.9765625 1254.23828125 C94.64300781 1254.75390625 95.30945313 1255.26953125 95.99609375 1255.80078125 C109.2501728 1266.42714528 117.45248728 1284.83619837 119.6953125 1301.35546875 C120.98749642 1314.60035395 119.3063308 1328.39813214 112.9765625 1340.23828125 C112.50605469 1341.23085937 112.03554688 1342.2234375 111.55078125 1343.24609375 C105.46144699 1355.54102641 96.86718279 1365.24480949 84.9765625 1372.23828125 C83.94015625 1372.85574219 82.90375 1373.47320313 81.8359375 1374.109375 C65.75516159 1382.93911611 48.48512344 1382.73959332 30.6015625 1382.61328125 C29.46259521 1382.60962555 28.32362793 1382.60596985 27.15014648 1382.60220337 C4.47780373 1382.5193321 -18.17861214 1381.8152561 -40.83545685 1381.01978302 C-43.47153102 1380.92759648 -46.10767477 1380.83766004 -48.74383545 1380.74798584 C-81.91626189 1379.60568321 -114.94884565 1377.26894637 -147.9609375 1373.80078125 C-150.04003546 1373.58614677 -152.1191371 1373.3715479 -154.19824219 1373.15698242 C-167.2510705 1371.7983046 -180.28389713 1370.31407837 -193.29272461 1368.58227539 C-199.27431957 1367.79214004 -205.2453356 1367.11794828 -211.25553894 1366.59761047 C-224.10371317 1365.4724443 -236.74700019 1363.5016291 -249.4609375 1361.36328125 C-251.53961284 1361.02022259 -253.61838885 1360.67777334 -255.69726562 1360.3359375 C-266.49905635 1358.55037891 -277.27593819 1356.65877786 -288.04039001 1354.66096497 C-294.06047876 1353.55717706 -300.08942479 1352.61928789 -306.1484375 1351.7578125 C-316.22411376 1350.30728858 -326.10088985 1348.17811051 -336.0234375 1345.92578125 C-338.73182476 1345.31825192 -341.44068157 1344.71284999 -344.14959717 1344.10768127 C-345.93985614 1343.70763408 -347.72993849 1343.30679556 -349.51983643 1342.90513611 C-355.80377108 1341.49813498 -362.10003922 1340.17075025 -368.40722656 1338.87182617 C-381.62891886 1336.13792388 -394.59029333 1332.72779494 -407.578125 1329.046875 C-412.49925214 1327.65267366 -417.42436671 1326.36567703 -422.3984375 1325.17578125 C-431.73050031 1322.89527715 -440.87166843 1319.99708876 -450.04443359 1317.15283203 C-452.93458995 1316.26555734 -455.83062183 1315.40188759 -458.73046875 1314.546875 C-469.96937624 1311.21898064 -481.01960901 1307.54109028 -492.02539062 1303.5065918 C-498.11584296 1301.2741569 -504.22342228 1299.16080395 -510.3984375 1297.17578125 C-518.34091845 1294.60042639 -525.96663815 1291.41549006 -533.62890625 1288.109375 C-537.26550235 1286.5439322 -540.93441826 1285.1119596 -544.6484375 1283.73828125 C-550.50259379 1281.5336626 -556.09143564 1278.89027504 -561.72265625 1276.1796875 C-565.97106574 1274.15116765 -570.2190978 1272.34895023 -574.6484375 1270.73828125 C-580.79314872 1268.45595994 -586.38651998 1265.49691668 -592.1171875 1262.3515625 C-596.13323389 1260.15350877 -600.22679263 1258.13030402 -604.3359375 1256.11328125 C-609.58296042 1253.52571687 -614.61884647 1250.76512626 -619.58984375 1247.671875 C-623.29918357 1245.48675828 -627.17508939 1243.66465621 -631.06640625 1241.828125 C-633.45839894 1240.54207345 -635.52015867 1239.22338625 -637.70825195 1237.63891602 C-638.33125687 1237.18919937 -638.95426178 1236.73948273 -639.59614563 1236.27613831 C-640.30265511 1235.76239906 -640.30265511 1235.76239906 -641.0234375 1235.23828125 C-641.09209684 1294.03449529 -641.14496892 1352.83070796 -641.17663349 1411.62695377 C-641.18037544 1418.56762745 -641.18426511 1425.50830105 -641.18823242 1432.44897461 C-641.18882084 1433.48498534 -641.18882084 1433.48498534 -641.18942114 1434.54192557 C-641.20220106 1456.92138793 -641.22473192 1479.30082755 -641.25232916 1501.68027613 C-641.28144458 1525.33386758 -641.29942848 1548.98743987 -641.30570298 1572.64104956 C-641.3098203 1586.80885793 -641.3228269 1600.97660097 -641.3471869 1615.14438923 C-641.36303879 1624.85839323 -641.36783908 1634.57236344 -641.36394163 1644.28637943 C-641.36201925 1649.89169954 -641.36497638 1655.49690545 -641.38105392 1661.10220528 C-641.39567296 1666.23653149 -641.39637674 1671.37066691 -641.38613418 1676.50500198 C-641.38486861 1678.35983261 -641.38865706 1680.21467522 -641.39808705 1682.0694823 C-641.49772049 1702.88122008 -635.9358308 1718.04738535 -621.03125 1733.2734375 C-619.80456425 1734.47302778 -618.56519044 1735.65990434 -617.30859375 1736.828125 C-616.0234375 1738.23828125 -616.0234375 1738.23828125 -616.0234375 1740.23828125 C-615.44078125 1740.48835938 -614.858125 1740.7384375 -614.2578125 1740.99609375 C-611.72122587 1742.40629401 -610.23198152 1743.97455118 -608.2734375 1746.11328125 C-601.86581585 1752.67976956 -594.44347239 1757.88867863 -587.0234375 1763.23828125 C-586.11207031 1763.89957031 -585.20070313 1764.56085938 -584.26171875 1765.2421875 C-566.48173835 1777.90858676 -547.49722199 1788.82738431 -527.86132812 1798.33691406 C-526.02339786 1799.23830069 -524.20181492 1800.16653385 -522.3828125 1801.10546875 C-515.88363656 1804.44094891 -509.40884162 1807.33293453 -502.55859375 1809.86328125 C-498.37256321 1811.49143899 -494.30058328 1813.32165825 -490.2109375 1815.17578125 C-483.25700848 1818.3136723 -476.24816099 1821.1267901 -469.08203125 1823.73828125 C-466.24178295 1824.77538436 -463.42756873 1825.86298859 -460.62109375 1826.98828125 C-452.84616176 1830.10279833 -445.1209762 1832.9258479 -437.05322266 1835.18164062 C-428.99127865 1837.46252722 -421.08231431 1840.20153488 -413.16625977 1842.94091797 C-406.55102135 1845.19289302 -399.91031539 1847.08628854 -393.12243652 1848.73110962 C-388.47304353 1849.86104095 -383.86632799 1851.09436797 -379.26953125 1852.421875 C-378.63500534 1852.60488663 -378.00047943 1852.78789825 -377.34672546 1852.97645569 C-376.05130135 1853.35056308 -374.75595796 1853.72495008 -373.46069336 1854.09960938 C-361.91688826 1857.4256233 -350.37239446 1860.43469246 -338.6015625 1862.85546875 C-333.17754183 1863.97423867 -327.78023199 1865.19432908 -322.3828125 1866.43359375 C-320.62109391 1866.83658923 -318.85937516 1867.23958402 -317.09765625 1867.64257812 C-314.47597041 1868.24267413 -311.85473327 1868.84441544 -309.23486328 1869.45239258 C-298.87230537 1871.85446481 -288.54221611 1873.88780009 -278.0234375 1875.46972656 C-272.52186535 1876.30089341 -267.04277705 1877.25049642 -261.5625 1878.2109375 C-260.58724365 1878.38147644 -259.6119873 1878.55201538 -258.60717773 1878.72772217 C-255.6207145 1879.25085028 -252.63453669 1879.77557938 -249.6484375 1880.30078125 C-225.98053467 1884.48397939 -225.98053467 1884.48397939 -202.1484375 1887.55078125 C-192.50929412 1888.58262106 -182.90027283 1889.75887201 -173.29052734 1891.03051758 C-132.94711497 1896.36634425 -92.67235937 1899.35779069 -52.0234375 1901.23828125 C-50.93488464 1901.28919922 -49.84633179 1901.34011719 -48.72479248 1901.39257812 C-27.78017689 1902.36801678 -6.84161465 1903.19484594 14.125 1903.4765625 C15.39346268 1903.49450867 16.66192535 1903.51245483 17.96882629 1903.53094482 C24.12241442 1903.61563163 30.27538798 1903.6833262 36.42944336 1903.72119141 C58.14969492 1903.92376189 79.62148396 1906.7383652 95.8515625 1922.86328125 C96.89644951 1923.98529087 97.93844197 1925.11000814 98.9765625 1926.23828125 C99.8428125 1927.04265625 100.7090625 1927.84703125 101.6015625 1928.67578125 C108.9765625 1936.63301809 108.9765625 1936.63301809 108.9765625 1941.23828125 C109.6365625 1941.23828125 110.2965625 1941.23828125 110.9765625 1941.23828125 C120.41033804 1960.77749272 122.79808854 1980.38898316 115.7890625 2001.30078125 C112.13510135 2010.95153747 107.21720155 2019.82925525 99.9765625 2027.23828125 C99.3165625 2027.23828125 98.6565625 2027.23828125 97.9765625 2027.23828125 C97.9765625 2027.89828125 97.9765625 2028.55828125 97.9765625 2029.23828125 C93.72497251 2033.48987124 88.93460665 2036.70048373 83.8515625 2039.86328125 C83.2733374 2040.23525635 82.6951123 2040.60723145 82.09936523 2040.99047852 C68.9411778 2048.94687948 55.52696921 2048.84484167 40.6484375 2048.8046875 C38.44467777 2048.81186044 36.24092159 2048.82020932 34.03717041 2048.82965088 C28.15163666 2048.84745561 22.26654974 2048.83550931 16.38104248 2048.81348038 C12.7141457 2048.8007381 9.0472862 2048.79465691 5.38037109 2048.78988647 C-34.62558371 2048.71916854 -74.2947201 2047.26183795 -114.12762451 2043.59619141 C-118.03509855 2043.23720994 -121.94339378 2042.88881241 -125.85205078 2042.54296875 C-161.52757829 2039.37035264 -161.52757829 2039.37035264 -177.98828125 2037.21875 C-184.34446659 2036.39292882 -190.69751134 2035.83680674 -197.0859375 2035.32421875 C-208.82174113 2034.36013904 -220.39652781 2032.69900032 -232.0234375 2030.86328125 C-234.05649166 2030.54806638 -236.08961413 2030.23329183 -238.12280273 2029.91894531 C-248.86881093 2028.24932242 -259.60552213 2026.53488869 -270.30455017 2024.58366394 C-275.29002647 2023.68495761 -280.27367933 2022.90530651 -285.29504395 2022.23747253 C-296.99993921 2020.67326701 -308.48644923 2018.42150648 -320.0234375 2015.92578125 C-322.86854044 2015.31737702 -325.71405545 2014.71092546 -328.55958557 2014.10452271 C-330.43740812 2013.70409656 -332.31504567 2013.30280177 -334.19248962 2012.90060425 C-339.47394218 2011.77117752 -344.7599471 2010.67862495 -350.05859375 2009.6328125 C-364.56994729 2006.76210966 -378.83814756 2003.32715979 -393.09399414 1999.39648438 C-399.54544991 1997.62662453 -405.93696716 1996.01275691 -412.51953125 1994.78125 C-420.63832309 1993.22178939 -428.36482952 1990.79583682 -436.2109375 1988.23828125 C-438.9319976 1987.35825138 -441.65469714 1986.483513 -444.37890625 1985.61328125 C-445.36698776 1985.29675346 -445.36698776 1985.29675346 -446.37503052 1984.97383118 C-450.28330772 1983.73796097 -454.19599506 1982.66463177 -458.18359375 1981.71875 C-464.7289151 1980.14478884 -470.96298862 1977.87676227 -477.2734375 1975.55078125 C-486.4386176 1972.21687829 -495.62560412 1969.00961652 -504.8984375 1965.98828125 C-512.41851181 1963.52596684 -519.66200253 1960.84178827 -526.8828125 1957.59765625 C-530.17920227 1956.17086068 -533.50365784 1954.97296974 -536.8984375 1953.80078125 C-543.37166013 1951.5438617 -549.59422746 1948.88385384 -555.84375 1946.08203125 C-559.05716269 1944.64378274 -562.30298485 1943.30291445 -565.5625 1941.97265625 C-572.93014102 1938.91425941 -580.10111318 1935.47255761 -587.2734375 1931.98828125 C-587.95531128 1931.65813019 -588.63718506 1931.32797913 -589.33972168 1930.98782349 C-598.33881858 1926.624589 -607.22747577 1922.13814444 -615.86328125 1917.0859375 C-618.82106606 1915.35660225 -621.81233849 1913.72390492 -624.8359375 1912.11328125 C-629.46254825 1909.60979382 -633.85576681 1906.82155452 -638.265625 1903.95703125 C-641.00452826 1902.25006605 -643.79017425 1900.73508763 -646.6484375 1899.23828125 C-651.08410689 1896.87511836 -654.91038936 1894.17560115 -658.7578125 1890.94921875 C-661.09170703 1889.18672598 -663.54203492 1887.82546027 -666.09179688 1886.40332031 C-669.73879658 1884.20368904 -673.04457369 1881.54222524 -676.3984375 1878.92578125 C-677.51400024 1878.06182739 -677.51400024 1878.06182739 -678.65209961 1877.18041992 C-680.1164303 1876.0459756 -681.57960902 1874.91004241 -683.04150391 1873.77246094 C-684.72640052 1872.46821231 -686.42613609 1871.1831696 -688.12890625 1869.90234375 C-688.93972656 1869.29132813 -689.75054688 1868.6803125 -690.5859375 1868.05078125 C-691.26785156 1867.54160156 -691.94976563 1867.03242187 -692.65234375 1866.5078125 C-693.10480469 1866.08886719 -693.55726563 1865.66992188 -694.0234375 1865.23828125 C-694.0234375 1864.57828125 -694.0234375 1863.91828125 -694.0234375 1863.23828125 C-694.6834375 1863.05265625 -695.3434375 1862.86703125 -696.0234375 1862.67578125 C-702.31722761 1859.66000682 -706.72688572 1854.60897098 -711.0234375 1849.23828125 C-712.2990947 1848.09515987 -713.59270367 1846.97192318 -714.8984375 1845.86328125 C-718.16395194 1843.08154673 -720.88200695 1840.15621012 -723.59765625 1836.84765625 C-725.3564009 1834.86244311 -727.39650031 1833.31336493 -729.46484375 1831.6640625 C-732.05346315 1829.29602721 -734.05753287 1826.50431291 -736.16015625 1823.70703125 C-738.73133128 1820.30035909 -741.43424681 1817.00463967 -744.12890625 1813.6953125 C-746.23785476 1810.96020196 -748.1260827 1808.12360779 -750.0234375 1805.23828125 C-750.590625 1804.43390625 -751.1578125 1803.62953125 -751.7421875 1802.80078125 C-756.38413531 1796.12289142 -760.37619737 1789.18382515 -764.2734375 1782.05078125 C-764.78068359 1781.12458984 -765.28792969 1780.19839844 -765.81054688 1779.24414062 C-771.10401117 1769.4473857 -775.07719136 1759.64240122 -778.5234375 1749.05078125 C-778.90113281 1747.94025391 -779.27882813 1746.82972656 -779.66796875 1745.68554688 C-785.84781117 1726.7106699 -787.61678505 1707.97739651 -787.52680206 1688.1187973 C-787.53098461 1685.75484697 -787.53691699 1683.39089922 -787.54441953 1681.02695709 C-787.55828518 1675.2411726 -787.55382386 1669.45561194 -787.54135927 1663.66982916 C-787.52738339 1656.67978883 -787.5370462 1649.68982636 -787.54721592 1642.69978647 C-787.56554367 1629.64005561 -787.56505131 1616.58038726 -787.55409241 1603.52065086 C-787.54306394 1590.297215 -787.54078479 1577.07382021 -787.54904175 1563.85038185 C-787.54955844 1563.01329254 -787.55007513 1562.17620322 -787.55060748 1561.31374757 C-787.55274071 1557.90407427 -787.55493556 1554.49440102 -787.55720858 1551.08472781 C-787.57833594 1519.36989797 -787.57981399 1487.65509566 -787.56861877 1455.94026184 C-787.56828759 1455.00160386 -787.56795641 1454.06294588 -787.56761519 1453.09584372 C-787.56728347 1452.15567401 -787.56695176 1451.2155043 -787.56660999 1450.2468446 C-787.55651022 1421.58368308 -787.55391495 1392.92053293 -787.55870056 1364.25737 C-787.55901048 1362.3366409 -787.55931911 1360.4159118 -787.55962644 1358.4951827 C-787.56086835 1350.77622636 -787.56214302 1343.05727003 -787.5634655 1335.3383137 C-787.56713321 1313.76173388 -787.56941585 1292.18515402 -787.57061005 1270.60857391 C-787.57066463 1269.62609461 -787.57071921 1268.64361531 -787.57077545 1267.6313639 C-787.57241213 1236.33358911 -787.56790723 1205.03581829 -787.55921173 1173.73804474 C-787.55879024 1172.21576776 -787.55879024 1172.21576776 -787.55836023 1170.66273772 C-787.55378064 1154.18306232 -787.5489027 1137.70338702 -787.54399953 1121.22371172 C-787.52457476 1055.86674085 -787.52547636 990.50980276 -787.54492188 925.15283203 C-787.54980679 908.68139398 -787.55465105 892.20995591 -787.55921173 875.73851776 C-787.55949352 874.72425896 -787.55977532 873.71000016 -787.56006565 872.66500624 C-787.56869265 841.39933317 -787.57234706 810.13366282 -787.57061005 778.86798859 C-787.57055571 777.88623421 -787.57050137 776.90447984 -787.57044539 775.89297533 C-787.56919538 754.34021388 -787.56666063 732.78745272 -787.56296803 711.23469156 C-787.56165152 703.52270911 -787.56039919 695.81072664 -787.55916519 688.09874418 C-787.55885564 686.18027077 -787.55854071 684.26179736 -787.55822041 682.34332395 C-787.55344944 653.68911742 -787.55750518 625.03492371 -787.56761519 596.38071878 C-787.56794638 595.4420608 -787.56827756 594.50340282 -787.56861877 593.53630066 C-787.5689495 592.59938052 -787.56928023 591.66246038 -787.56962098 590.69714873 C-787.58066237 559.07227269 -787.57657818 527.44742962 -787.5554958 495.82255828 C-787.55328647 492.42376577 -787.55113964 489.02497323 -787.54904175 485.62618065 C-787.54852092 484.79208077 -787.54800009 483.95798089 -787.54746348 483.09860525 C-787.53958656 469.91314917 -787.54505338 456.72773423 -787.55611777 443.54228187 C-787.56672193 430.56435118 -787.56294283 417.58648963 -787.54406142 404.60856767 C-787.53435315 397.67188383 -787.53074133 390.73534108 -787.54568535 383.79866236 C-787.55867445 377.47891259 -787.55301988 371.15945476 -787.53296271 364.83972596 C-787.52895883 362.57675763 -787.53153262 360.31376471 -787.54178646 358.05081607 C-787.62970945 337.15133777 -784.49956668 318.00682713 -777.70214844 298.24658203 C-777.10974852 296.49367492 -776.56621456 294.7244053 -776.03125 292.953125 C-773.580609 284.89637164 -769.92501139 277.59461855 -766.02734375 270.16064453 C-765.11426499 268.41220529 -764.22381598 266.65199504 -763.3359375 264.890625 C-758.65151268 255.80329128 -752.97174679 247.52814721 -747.0234375 239.23828125 C-746.58080566 238.61840332 -746.13817383 237.99852539 -745.68212891 237.35986328 C-740.3871731 229.98125355 -740.3871731 229.98125355 -738.0234375 227.23828125 C-737.3634375 227.23828125 -736.7034375 227.23828125 -736.0234375 227.23828125 C-735.745 226.24828125 -735.745 226.24828125 -735.4609375 225.23828125 C-732.44516307 218.94449114 -727.39412723 214.53483303 -722.0234375 210.23828125 C-720.98568573 209.06553737 -719.96701841 207.87580547 -718.9609375 206.67578125 C-715.82983131 203.007914 -712.45391539 199.73482363 -708.8984375 196.48828125 C-708.39562256 196.0286499 -707.89280762 195.56901855 -707.37475586 195.09545898 C-704.34496179 192.35673248 -701.22083982 189.77723993 -698.0234375 187.23828125 C-696.12670899 185.58006351 -694.25171868 183.89997562 -692.37890625 182.21484375 C-689.03514671 179.40896924 -685.5286415 176.83789258 -682.0234375 174.23828125 C-680.58848007 173.1628426 -679.15358522 172.08732044 -677.71875 171.01171875 C-658.95513854 157.02392726 -639.59421982 144.40967989 -619.0234375 133.23828125 C-617.77433594 132.55378906 -617.77433594 132.55378906 -616.5 131.85546875 C-614.66451738 130.85094961 -612.82723861 129.84970626 -610.98828125 128.8515625 C-608.89268293 127.71126987 -606.80198905 126.56194203 -604.71484375 125.40625 C-603.59980469 124.79394531 -602.48476563 124.18164062 -601.3359375 123.55078125 C-599.81419922 122.70966797 -599.81419922 122.70966797 -598.26171875 121.8515625 C-595.88314468 120.66657928 -593.70417684 119.72572506 -591.22265625 118.84375 C-586.40768192 117.09896095 -582.01095796 114.68732933 -577.5234375 112.23828125 C-572.51719807 109.50614416 -567.62657421 106.97027857 -562.24804688 105.06103516 C-557.26174056 103.21688982 -552.40877638 101.01954854 -547.5234375 98.92578125 C-538.42845411 95.05460591 -529.3287015 91.32253551 -520.03076172 87.96826172 C-517.74293376 87.13627369 -515.46320439 86.28392749 -513.18359375 85.4296875 C-511.50524854 84.80327768 -509.82686369 84.17697405 -508.1484375 83.55078125 C-507.38732666 83.26493164 -506.62621582 82.97908203 -505.84204102 82.68457031 C-501.23328793 80.97699451 -496.60041963 79.49661104 -491.88574219 78.11157227 C-488.49467838 77.0769565 -485.13544975 75.95618574 -481.77734375 74.8203125 C-481.12623123 74.60022018 -480.47511871 74.38012787 -479.80427551 74.15336609 C-478.43890249 73.69158131 -477.07357249 73.2296693 -475.70828247 72.76763916 C-460.24994669 67.54632479 -444.71337989 62.72302305 -429.0234375 58.23828125 C-427.7552417 57.87162354 -427.7552417 57.87162354 -426.46142578 57.49755859 C-417.28411731 54.84658808 -408.06589055 52.48861598 -398.76123047 50.32788086 C-393.28447168 49.04601257 -387.8338877 47.68194353 -382.39453125 46.25 C-381.7259761 46.0746019 -381.05742096 45.8992038 -380.36860657 45.7184906 C-377.06794734 44.85175181 -373.76960758 43.97792734 -370.47387695 43.0925293 C-363.32873127 41.21046376 -356.19747418 39.6719706 -348.91456604 38.45027161 C-342.85718998 37.42115104 -336.85483316 36.18685273 -330.84765625 34.8984375 C-329.87236969 34.68967484 -328.89708313 34.48091217 -327.89224243 34.26582336 C-325.87201 33.83313334 -323.8518182 33.4002536 -321.83166504 32.9671936 C-305.73454501 29.52975169 -289.73759264 26.32829802 -273.40625 24.23046875 C-262.5267734 22.82355956 -251.70804693 20.98583665 -240.88122559 19.22598267 C-230.72087319 17.57563 -220.55601984 15.98942852 -210.359375 14.578125 C-209.48584381 14.45561874 -208.61231262 14.33311249 -207.71231079 14.20689392 C-201.49549005 13.36316402 -195.28060475 12.80845749 -189.0234375 12.36328125 C-177.90560498 11.54845903 -166.84853172 10.37484998 -155.77102661 9.13583374 C-134.54640296 6.7634729 -113.32618192 4.75495969 -92.0234375 3.23828125 C-91.32454407 3.18843079 -90.62565063 3.13858032 -89.90557861 3.08721924 C-85.15398135 2.75025096 -80.40158867 2.42758578 -75.6484375 2.11328125 C-74.5044751 2.03762939 -73.3605127 1.96197754 -72.18188477 1.8840332 C-69.1914324 1.69576043 -66.20062623 1.52250429 -63.20876217 1.35844898 C-61.75763754 1.27865381 -60.3066083 1.19710383 -58.85568333 1.11375713 C-39.24613796 0.01511788 -19.63323404 0.03758087 0 0 Z M-40.87646484 145.93066406 C-45.70439945 146.14218383 -50.53255228 146.33605033 -55.36181641 146.51464844 C-100.75124866 148.19819529 -145.45140538 152.72402619 -190.44364929 158.85641479 C-197.43493544 159.79823893 -204.41562946 160.61229488 -211.44140625 161.2421875 C-222.51240369 162.25482968 -233.40008283 164.21445461 -244.3359375 166.17578125 C-246.33387312 166.5273256 -248.33191987 166.87823892 -250.33007812 167.22851562 C-258.59512622 168.68496552 -266.84562564 170.17757867 -275.06640625 171.8671875 C-279.64937707 172.80606546 -284.20623323 173.57021809 -288.84375 174.18359375 C-296.52366658 175.23075696 -304.02869829 176.87265936 -311.58154297 178.58740234 C-313.88775414 179.11085639 -316.19561731 179.6264192 -318.50390625 180.140625 C-326.45761113 181.92183633 -334.37738366 183.80353518 -342.27545166 185.81697083 C-346.47787611 186.87948034 -350.69086187 187.8125745 -354.9375 188.6796875 C-363.2165345 190.4169006 -371.28665607 192.79572528 -379.3984375 195.17578125 C-382.36350552 196.04280759 -385.32960511 196.90616431 -388.296875 197.765625 C-389.02677643 197.97750961 -389.75667786 198.18939423 -390.50869751 198.40769958 C-395.37827053 199.80663557 -400.26967319 201.05414964 -405.1953125 202.23828125 C-412.93554495 204.11505806 -420.39751858 206.62245528 -427.8984375 209.30078125 C-430.35349741 210.16856241 -432.80921481 211.03448595 -435.265625 211.8984375 C-436.42707031 212.30707031 -437.58851563 212.71570313 -438.78515625 213.13671875 C-441.55666956 214.07950132 -444.32715098 214.93640854 -447.140625 215.7421875 C-453.01370865 217.45802095 -458.61779443 219.79308395 -464.2734375 222.11328125 C-470.98186945 224.83870397 -477.66627815 227.53503645 -484.5234375 229.86328125 C-490.56196255 231.95296787 -496.24733272 234.60012751 -501.99462891 237.37207031 C-505.58921225 239.10434051 -509.14947851 240.7351796 -512.8984375 242.11328125 C-519.64516042 244.70374654 -525.92644443 248.33014528 -532.2890625 251.73046875 C-536.16383076 253.7975264 -540.07363798 255.75651247 -544.0234375 257.67578125 C-556.08894047 263.67317077 -567.98387908 270.28404067 -578.69921875 278.484375 C-580.39331633 279.76277804 -582.13705312 280.97616477 -583.90625 282.1484375 C-594.21040362 289.05661066 -603.56387387 297.22094798 -612.50488281 305.79150391 C-613.94042743 307.1591948 -615.39927337 308.50230676 -616.859375 309.84375 C-629.04700742 321.38533314 -641.06686801 336.28556081 -642.25 353.54296875 C-642.62123267 368.96599862 -637.75548425 380.34142883 -628.0234375 392.23828125 C-627.47042969 392.97949219 -626.91742187 393.72070312 -626.34765625 394.484375 C-623.12239384 398.80268576 -619.90876835 402.39627432 -615.7109375 405.76953125 C-613.90846248 407.3383521 -612.46777793 409.01112322 -610.9609375 410.86328125 C-608.31691975 414.05553365 -605.50838174 415.95966386 -602.0234375 418.23828125 C-599.50141155 420.45535635 -597.0376111 422.72501621 -594.5859375 425.01953125 C-591.8622043 427.3778856 -589.04670388 429.27985992 -586.0234375 431.23828125 C-584.77563383 432.09589443 -583.53100704 432.95814247 -582.2890625 433.82421875 C-575.00497023 438.88847444 -567.72757769 443.82733047 -560.0234375 448.23828125 C-559.06308594 448.80417969 -558.10273437 449.37007813 -557.11328125 449.953125 C-542.05194122 458.73142687 -526.61642402 466.97398085 -510.54296875 473.7421875 C-507.34592757 475.10119612 -504.21939531 476.55253189 -501.0859375 478.05078125 C-491.56346987 482.48901679 -481.73113231 486.22150987 -471.96118164 490.07397461 C-469.16860179 491.18074876 -466.38504549 492.30809459 -463.6015625 493.4375 C-460.2558672 494.77698125 -456.93287946 495.94784231 -453.4609375 496.92578125 C-445.61914019 499.2596495 -437.97174625 502.1173934 -430.30834961 504.97729492 C-424.37885644 507.1566859 -418.51291454 508.92218504 -412.36987305 510.38256836 C-408.3708034 511.40516551 -404.44327049 512.60207446 -400.50390625 513.83203125 C-399.75010178 514.06667587 -398.9962973 514.3013205 -398.21965027 514.54307556 C-395.10356771 515.51550755 -391.9888511 516.49207619 -388.87670898 517.47705078 C-379.94617554 520.29721924 -371.16033159 522.74006066 -361.9387207 524.45556641 C-357.45527445 525.35186426 -353.04428019 526.44001028 -348.6171875 527.578125 C-347.8041214 527.78692795 -346.9910553 527.9957309 -346.15335083 528.21086121 C-344.47453748 528.64295838 -342.79586935 529.07562014 -341.11734009 529.50881958 C-328.92313252 532.6442762 -316.78422253 535.75863704 -304.33178711 537.68896484 C-297.67306605 538.73580855 -291.07862023 540.01049953 -284.4765625 541.36328125 C-283.51002243 541.56062363 -282.54348236 541.757966 -281.5476532 541.96128845 C-277.6128435 542.766041 -273.67836858 543.57187941 -269.74746704 544.39553833 C-257.32005507 546.99773919 -244.95608913 548.99612357 -232.34643555 550.47631836 C-225.59092162 551.27309879 -218.85891172 552.21516095 -212.125 553.17578125 C-210.94044724 553.34395859 -209.75589447 553.51213593 -208.53544617 553.68540955 C-203.69636739 554.37347216 -198.85776683 555.06482255 -194.01953125 555.75878906 C-161.71938675 560.44479126 -161.71938675 560.44479126 -129.2109375 563.17578125 C-126.59220613 563.32751252 -123.97376449 563.48175227 -121.35546875 563.640625 C-120.64708862 563.68335541 -119.9387085 563.72608582 -119.2088623 563.77011108 C-112.74957736 564.17085876 -106.29911077 564.66949859 -99.84765625 565.1796875 C-43.662213 569.61627478 12.60697162 571.86653911 68.9765625 571.23828125 C69.79334473 571.22968079 70.61012695 571.22108032 71.45166016 571.21221924 C115.53636277 570.72916524 159.58974092 568.64179574 203.49389648 564.59643555 C205.27716338 564.43258822 207.06044751 564.26892829 208.84375 564.10546875 C209.70368057 564.02630722 210.56361115 563.94714569 211.44960022 563.86558533 C217.09952619 563.36120167 222.73990916 563.03287969 228.40625 562.78515625 C239.08343646 562.29469905 249.6312529 560.97974391 260.2265625 559.61328125 C261.24682526 559.48400238 262.26708801 559.35472351 263.31826782 559.2215271 C283.93681198 556.60803786 304.49306131 553.59693383 325.03404236 550.43572998 C329.38935182 549.7685979 333.74544413 549.12590332 338.11254883 548.54052734 C351.96335698 546.67549199 365.60137324 544.04770238 379.2890625 541.23828125 C382.53966374 540.57656644 385.79061027 539.9165765 389.04168701 539.25720215 C391.14336415 538.83071397 393.24480836 538.4030762 395.3460083 537.97424316 C401.01613915 536.82069827 406.69190967 535.73059435 412.38671875 534.70703125 C421.05873581 533.10399986 429.56503355 530.93431823 438.1015625 528.73828125 C441.16581404 527.95365204 444.23095357 527.17260913 447.296875 526.39453125 C448.04413345 526.2041629 448.79139191 526.01379456 449.56129456 525.81765747 C453.98428904 524.70234788 458.4127484 523.71933832 462.88671875 522.82421875 C471.86609236 520.94673684 480.54861373 518.11720223 489.2890625 515.36328125 C491.79111077 514.58058549 494.29371236 513.79968742 496.79653931 513.01948547 C498.44590591 512.50529481 500.0949763 511.99015298 501.7437439 511.4740448 C507.14616708 509.78832223 512.56742005 508.18127497 518.00390625 506.609375 C524.51538887 504.71891742 530.88607114 502.57635295 537.2265625 500.17578125 C542.95934672 498.04106114 548.64858827 495.96631093 554.5390625 494.30078125 C561.22628237 492.32778949 567.51527284 489.52412752 573.89111328 486.73120117 C579.67978391 484.19975941 585.50306596 481.84242555 591.4140625 479.61328125 C599.22509062 476.63935379 606.55575829 473.09542242 613.9765625 469.23828125 C615.80722193 468.32219983 617.64233759 467.41548177 619.4777832 466.5090332 C626.99594032 462.78834645 634.46140304 458.96313736 641.9140625 455.11328125 C643.3525354 454.37718628 643.3525354 454.37718628 644.82006836 453.6262207 C650.81823131 450.51218096 656.40956819 447.06206124 661.9765625 443.23828125 C663.76377539 442.10621918 665.55469093 440.97994907 667.3515625 439.86328125 C678.219834 432.97194709 688.59707891 425.16352905 698.29296875 416.69921875 C699.43329621 415.70970026 700.58755918 414.73605541 701.75390625 413.77734375 C705.44835527 410.72154127 708.53884958 407.51410093 711.58203125 403.8125 C712.9765625 402.23828125 712.9765625 402.23828125 715.4140625 400.42578125 C719.45583827 396.97548486 722.07847724 392.65979531 724.9765625 388.23828125 C726.02650391 386.69333984 726.02650391 386.69333984 727.09765625 385.1171875 C734.91226637 373.17302194 738.03960333 361.16331509 735.35546875 346.94921875 C733.11375564 338.60008281 729.12481007 332.11214513 723.9765625 325.23828125 C723.40421875 324.44292969 722.831875 323.64757812 722.2421875 322.828125 C712.12127757 309.4156802 699.37443481 298.2447122 685.9765625 288.23828125 C684.36988322 286.97062604 682.7653881 285.70019263 681.1640625 284.42578125 C676.91235911 281.12934087 672.49155428 278.15922617 667.9765625 275.23828125 C667.16324463 274.71097412 666.34992676 274.18366699 665.51196289 273.64038086 C659.04789382 269.48589547 652.48578322 265.56750768 645.7890625 261.80078125 C644.79092529 261.2380249 643.79278809 260.67526855 642.7644043 260.09545898 C635.76247996 256.17498909 628.69369623 252.44827029 621.4765625 248.94140625 C618.22136801 247.35740536 615.00645199 245.7097477 611.7890625 244.05078125 C606.72182041 241.51031258 601.54811592 239.48484075 596.23828125 237.51171875 C593.03022737 236.25923304 589.95667939 234.85090379 586.8515625 233.36328125 C580.13923291 230.20832538 573.26515872 227.68600543 566.29321289 225.17919922 C562.08657754 223.65552763 557.91058379 222.06440251 553.74052429 220.44378662 C542.90023033 216.24213549 531.96182568 212.44589624 520.8996582 208.87304688 C518.14461223 207.98199051 515.39353337 207.07937791 512.64257812 206.17578125 C503.41761388 203.16702938 494.21254473 200.43351286 484.77661133 198.17285156 C480.86035624 197.2097019 476.99039348 196.14038759 473.1171875 195.01953125 C472.46623611 194.83215393 471.81528473 194.64477661 471.14460754 194.45172119 C468.52090298 193.6950812 465.89808781 192.93569959 463.27832031 192.16552734 C454.51499053 189.59620857 445.76087142 187.51667923 436.79286194 185.78994751 C430.54021888 184.5778607 424.34059211 183.20394628 418.14453125 181.73046875 C417.2415329 181.51638367 416.33853455 181.30229858 415.40817261 181.08172607 C411.7311238 180.20738603 408.05526708 179.32828367 404.38110352 178.44189453 C394.58547724 176.08446949 384.948686 173.93764862 374.92895508 172.7578125 C370.10576343 172.12381708 365.33845834 171.27720841 360.5546875 170.3984375 C359.63472488 170.22944946 358.71476227 170.06046143 357.766922 169.88635254 C354.9196343 169.36049191 352.07302393 168.83109488 349.2265625 168.30078125 C322.74938234 163.36091168 322.74938234 163.36091168 296.03559875 160.03010559 C288.95645612 159.36149203 281.90389264 158.5288152 274.84765625 157.65234375 C273.69345688 157.50925278 272.53925751 157.3661618 271.3500824 157.21873474 C268.94704063 156.92060409 266.54402083 156.62229633 264.14102173 156.32382202 C225.36964443 151.53283856 186.88331206 147.89610712 147.83500671 146.53648376 C143.04295972 146.36601569 138.25739055 146.15544347 133.47045898 145.87667847 C105.67278339 144.26240662 77.81349152 144.0321161 49.9765625 144.05078125 C49.17607861 144.05090084 48.37559471 144.05102043 47.55085373 144.05114365 C18.04536903 144.05667368 -11.39595496 144.63696709 -40.87646484 145.93066406 Z " fill="#131A33" transform="translate(787.0234375,-0.23828125)"/>
<path d="M0 0 C2.41630433 2.14464881 4.70281543 4.33938784 6.953125 6.65625 C7.77425781 7.44515625 8.59539062 8.2340625 9.44140625 9.046875 C27.82017017 28.14020983 28.25430862 50.33922861 28.2315979 75.34591675 C28.23660553 77.85763037 28.24248269 80.36934238 28.24915063 82.88105214 C28.26162444 88.32558793 28.26800486 93.77007727 28.26891136 99.21462631 C28.27029283 107.31033648 28.28310893 115.40600097 28.2981991 123.50169577 C28.32326816 137.12285905 28.33916643 150.74401844 28.34978104 164.36520004 C28.36031623 177.84575102 28.37496246 191.3262873 28.39506149 204.80682755 C28.39631036 205.64599134 28.39755923 206.48515513 28.39884594 207.34974813 C28.40520997 211.61169002 28.41164708 215.87363179 28.41811232 220.13557352 C28.46373684 250.29821973 28.50020082 280.46087072 28.53125 310.62353516 C28.56142899 339.92041727 28.5957745 369.21728968 28.63574219 398.51416016 C28.63697319 399.41771667 28.63820419 400.32127319 28.6394725 401.25221021 C28.65183969 410.32635599 28.66429138 419.40050165 28.67680498 428.47464724 C28.70229316 446.95861223 28.72721743 465.44257797 28.75180054 483.92654419 C28.7534969 485.20125053 28.7534969 485.20125053 28.75522753 486.50170852 C28.83064275 543.21987775 28.8928727 599.93806289 28.953125 656.65625 C30.38896599 654.90963072 31.82363446 653.16204751 33.2578125 651.4140625 C34.05687012 650.44098145 34.85592773 649.46790039 35.67919922 648.46533203 C38.0319723 645.55884641 40.28805008 642.59903518 42.51171875 639.59375 C45.26104056 635.89818464 48.11406867 632.28302138 50.953125 628.65625 C51.75621094 627.62628906 52.55929687 626.59632813 53.38671875 625.53515625 C58.51821107 618.9665048 63.70674477 612.44606274 68.953125 605.96875 C69.78094482 604.94382446 69.78094482 604.94382446 70.62548828 603.89819336 C71.1461084 603.25760986 71.66672852 602.61702637 72.203125 601.95703125 C72.66203125 601.39153564 73.1209375 600.82604004 73.59375 600.2434082 C74.953125 598.65625 74.953125 598.65625 76.5234375 597.14135742 C78.19282595 595.5434721 78.19282595 595.5434721 79.578125 592.59375 C82.00787485 588.14862625 85.43152599 584.69674471 88.85546875 581 C91.19754746 578.38315228 93.02134647 575.58507551 94.953125 572.65625 C96.18737693 571.2464724 97.43943892 569.85220516 98.703125 568.46875 C102.35911043 564.42969257 105.52358599 560.18866548 108.6796875 555.75390625 C111.87210642 551.40409835 115.25876335 547.22075439 118.64892578 543.02441406 C121.36441813 539.65856173 124.02185575 536.27105876 126.578125 532.78125 C128.953125 529.65625 128.953125 529.65625 130.953125 528.65625 C131.79423828 527.12291016 131.79423828 527.12291016 132.65234375 525.55859375 C139.62456799 512.96619797 152.0370175 504.25371204 164.953125 498.65625 C165.90832031 498.22957031 166.86351562 497.80289063 167.84765625 497.36328125 C186.78055584 489.68478464 206.52683499 491.93113872 224.953125 499.65625 C230.19344493 502.20906191 235.49421248 504.85487297 239.953125 508.65625 C239.953125 509.31625 239.953125 509.97625 239.953125 510.65625 C240.53707031 510.92179687 241.12101562 511.18734375 241.72265625 511.4609375 C253.4616025 517.75186141 260.20214927 533.28648337 264.296875 545.32421875 C269.63981333 564.31073176 266.52081676 584.51984948 257.453125 601.65625 C252.9937418 609.30043964 247.22872615 615.96144915 241.55615234 622.71777344 C239.08963542 625.70043326 236.73456508 628.76437757 234.390625 631.84375 C231.61957237 635.48396922 228.81809923 639.08953107 225.953125 642.65625 C224.84593868 644.07055793 223.74171182 645.48718823 222.640625 646.90625 C222.03347656 647.68742187 221.42632813 648.46859375 220.80078125 649.2734375 C219.61883159 650.79772775 218.43894205 652.32361909 217.26171875 653.8515625 C214.13465512 657.90005787 210.95358335 661.89345987 207.703125 665.84375 C201.09245999 673.89248547 194.70195997 682.11214235 188.31640625 690.33984375 C187.38574341 691.53855103 187.38574341 691.53855103 186.4362793 692.76147461 C185.2269817 694.32000833 184.01875414 695.8793731 182.81176758 697.43969727 C179.60050901 701.58088376 176.32071499 705.6414871 172.953125 709.65625 C171.81952751 711.08697987 170.69371008 712.52393127 169.578125 713.96875 C168.98 714.74089844 168.381875 715.51304687 167.765625 716.30859375 C166.59804593 717.8209106 165.43131279 719.33388113 164.265625 720.84765625 C161.1997552 724.81483499 158.08359026 728.72796027 154.890625 732.59375 C149.00348822 739.75459439 143.35976525 747.10378579 137.68115234 754.43017578 C135.09392062 757.76309169 132.49507236 761.08677659 129.890625 764.40625 C129.46217285 764.95385986 129.0337207 765.50146973 128.59228516 766.06567383 C126.54798167 768.66887197 124.47411445 771.24061326 122.34375 773.7734375 C119.8382063 776.79482843 117.55528743 779.91863855 115.28515625 783.1171875 C114.84558594 783.62507813 114.40601563 784.13296875 113.953125 784.65625 C113.293125 784.65625 112.633125 784.65625 111.953125 784.65625 C111.67984375 785.24019531 111.4065625 785.82414062 111.125 786.42578125 C103.95823284 800.06652808 91.06116032 812.63769569 80.55078125 823.84765625 C78.52803701 826.0346534 76.56761089 828.24661435 74.62109375 830.5 C70.96863107 834.68998187 67.13516325 838.66650224 63.203125 842.59375 C62.50574219 843.29032715 61.80835938 843.9869043 61.08984375 844.70458984 C55.64842322 850.08212629 50.03917468 855.01110281 43.953125 859.65625 C43.00179687 860.40841797 43.00179687 860.40841797 42.03125 861.17578125 C40.03909818 862.72097593 38.00354882 864.18916652 35.953125 865.65625 C34.49326172 866.74679687 34.49326172 866.74679687 33.00390625 867.859375 C25.35296343 873.39565758 17.31791768 877.61138996 8.703125 881.46875 C7.72931885 881.9124292 6.7555127 882.3561084 5.75219727 882.81323242 C-10.76984558 889.96781307 -26.51281984 892.56501559 -44.421875 892.34375 C-45.36299133 892.33893616 -46.30410767 892.33412231 -47.27374268 892.3291626 C-61.24598239 892.23151274 -74.10154586 891.35543116 -87.046875 885.65625 C-87.6965625 885.38409668 -88.34625 885.11194336 -89.015625 884.83154297 C-92.77070307 883.24736941 -96.40348925 881.47794288 -100.046875 879.65625 C-101.18769531 879.18058594 -102.32851562 878.70492187 -103.50390625 878.21484375 C-115.27790756 873.03532168 -126.53745757 865.01066719 -136.046875 856.40234375 C-138.1600364 854.5574548 -140.36017051 852.89425537 -142.609375 851.21875 C-146.37740125 848.3361776 -149.3389521 845.19756716 -152.36328125 841.55859375 C-154.00161992 839.70738509 -155.6889917 838.20684395 -157.609375 836.65625 C-160.90194315 833.96032172 -163.18773161 830.91113359 -165.6484375 827.4609375 C-167.07657786 825.47217381 -167.07657786 825.47217381 -169.546875 823.65625 C-173.04298166 820.85936467 -175.66323128 817.44059157 -178.046875 813.65625 C-178.046875 812.99625 -178.046875 812.33625 -178.046875 811.65625 C-178.94019531 811.26566406 -178.94019531 811.26566406 -179.8515625 810.8671875 C-182.18921669 809.57773412 -183.47072075 808.32085378 -185.171875 806.28125 C-185.66945313 805.69601562 -186.16703125 805.11078125 -186.6796875 804.5078125 C-188.046875 802.65625 -188.046875 802.65625 -188.9140625 800.7421875 C-190.48059617 797.85760481 -192.70978288 795.96042533 -195.046875 793.65625 C-197.23251786 791.12163895 -199.32685886 788.51597671 -201.421875 785.90625 C-201.99695801 785.1939624 -202.57204102 784.4816748 -203.16455078 783.74780273 C-206.64562286 779.42723591 -210.10272732 775.08956903 -213.48046875 770.6875 C-214.64581329 769.17633002 -215.82828012 767.6783331 -217.01953125 766.1875 C-217.66792969 765.3728125 -218.31632812 764.558125 -218.984375 763.71875 C-219.57089844 762.98785156 -220.15742187 762.25695313 -220.76171875 761.50390625 C-222.046875 759.65625 -222.046875 759.65625 -222.046875 757.65625 C-223.036875 757.32625 -224.026875 756.99625 -225.046875 756.65625 C-226.58984375 754.6875 -226.58984375 754.6875 -228.234375 752.15625 C-231.23338069 747.70857207 -234.48766251 743.77035865 -238.15234375 739.859375 C-240.046875 737.65625 -240.046875 737.65625 -241.89453125 734.875 C-244.47458532 731.01662513 -247.34764285 727.48538199 -250.296875 723.90625 C-251.46375497 722.47934107 -252.6304223 721.05225823 -253.796875 719.625 C-254.35761719 718.94050781 -254.91835937 718.25601563 -255.49609375 717.55078125 C-260.33571467 711.63839801 -265.05666552 705.66784328 -269.609375 699.53125 C-272.75818248 695.29664683 -276.0436437 691.30011105 -279.5703125 687.37890625 C-281.046875 685.65625 -281.046875 685.65625 -282.984375 682.71875 C-284.7873579 680.04159358 -286.62878958 677.84311927 -288.796875 675.46875 C-292.54931773 671.32716506 -295.8046695 666.96074911 -299.046875 662.4140625 C-302.92447196 657.06721981 -307.13703335 651.98141681 -311.328125 646.87890625 C-312.0603125 645.98042969 -312.7925 645.08195312 -313.546875 644.15625 C-314.2171875 643.3415625 -314.8875 642.526875 -315.578125 641.6875 C-317.046875 639.65625 -317.046875 639.65625 -317.046875 637.65625 C-317.706875 637.65625 -318.366875 637.65625 -319.046875 637.65625 C-320.49214236 635.92076831 -321.8555972 634.11649037 -323.171875 632.28125 C-323.89632813 631.28351562 -324.62078125 630.28578125 -325.3671875 629.2578125 C-327.046875 626.65625 -327.046875 626.65625 -327.046875 624.65625 C-328.036875 624.32625 -329.026875 623.99625 -330.046875 623.65625 C-332.08984375 621.22265625 -332.08984375 621.22265625 -334.234375 618.21875 C-334.94980469 617.23003906 -335.66523437 616.24132813 -336.40234375 615.22265625 C-338.046875 612.65625 -338.046875 612.65625 -338.046875 610.65625 C-338.706875 610.65625 -339.366875 610.65625 -340.046875 610.65625 C-350.92042415 597.68085501 -356.50814371 577.33326913 -355.046875 560.65625 C-353.01830121 544.71745597 -348.34074538 531.24692716 -338.046875 518.65625 C-337.56605469 518.01300781 -337.08523438 517.36976563 -336.58984375 516.70703125 C-325.95906 503.07389359 -307.92668924 496.14182819 -291.484375 492.96875 C-271.9513761 491.19302283 -252.51822183 496.38335832 -236.859375 508.40625 C-226.9263539 516.76588056 -218.67892667 527.29769735 -211.359375 537.96875 C-208.86644019 541.5979204 -206.2066962 544.57958199 -203.046875 547.65625 C-198.046875 553.93724174 -198.046875 553.93724174 -198.046875 556.65625 C-197.056875 556.98625 -196.066875 557.31625 -195.046875 557.65625 C-193.6875 559.1081543 -193.6875 559.1081543 -192.296875 560.98046875 C-191.77633545 561.67261475 -191.2557959 562.36476074 -190.71948242 563.07788086 C-190.16752197 563.82561768 -189.61556152 564.57335449 -189.046875 565.34375 C-187.87710213 566.90164272 -186.70651652 568.45892548 -185.53515625 570.015625 C-184.94943848 570.79744141 -184.3637207 571.57925781 -183.76025391 572.38476562 C-181.29379999 575.65462701 -178.77138559 578.87849301 -176.234375 582.09375 C-175.78344482 582.66673828 -175.33251465 583.23972656 -174.86791992 583.83007812 C-172.2214593 587.18689682 -169.5462462 590.51913894 -166.859375 593.84375 C-164.07106431 597.30628335 -161.44421632 600.85190113 -158.859375 604.46875 C-156.79452398 607.34824928 -154.87081592 609.83230908 -152.359375 612.34375 C-149.77323517 614.92988983 -148.16126622 617.63035063 -146.29296875 620.75 C-144.5523517 623.41276213 -142.31922964 625.43931864 -140.046875 627.65625 C-138.62173401 629.45201589 -137.27369184 631.29581794 -135.91796875 633.14453125 C-133.49335495 636.39928422 -130.99247265 639.59061125 -128.484375 642.78125 C-128.02530762 643.36704834 -127.56624023 643.95284668 -127.09326172 644.55639648 C-126.64354004 645.12817627 -126.19381836 645.69995605 -125.73046875 646.2890625 C-125.33400146 646.79324707 -124.93753418 647.29743164 -124.52905273 647.81689453 C-123.1867623 649.48265241 -121.82479341 651.12870565 -120.45423889 652.77120972 C-119.26259377 654.19930466 -119.26259377 654.19930466 -118.046875 655.65625 C-118.04540979 653.75521227 -118.04540979 653.75521227 -118.04391497 651.81576973 C-118.00065548 595.9430435 -117.95368904 540.07032132 -117.88789368 484.19761658 C-117.88689811 483.35130155 -117.88590254 482.50498652 -117.88487681 481.63302558 C-117.86321665 463.23889418 -117.84089384 444.84476365 -117.81788872 426.45063389 C-117.80661052 417.42973589 -117.7954787 408.40883772 -117.78442383 399.38793945 C-117.78332126 398.49026706 -117.7822187 397.59259466 -117.78108272 396.66772007 C-117.74543472 367.58846133 -117.71944667 338.50920374 -117.69848531 309.42993101 C-117.67688785 279.53916167 -117.64551041 249.64841809 -117.60188387 219.7576724 C-117.59572192 215.53269215 -117.58967139 211.30771175 -117.58368874 207.08273125 C-117.58250785 206.25122085 -117.58132697 205.41971045 -117.58011031 204.56300277 C-117.56141229 191.19535942 -117.55297823 177.82772849 -117.54841376 164.46007367 C-117.54360115 151.01054464 -117.52790076 137.56106281 -117.50120934 124.1115591 C-117.48569257 116.12779041 -117.47840116 108.14411492 -117.48310571 100.160332 C-117.48570314 94.1869487 -117.47262812 88.21370489 -117.45363948 82.24034684 C-117.44838814 79.83225985 -117.44811919 77.42415545 -117.45347937 75.0160687 C-117.51918647 42.13468007 -117.51918647 42.13468007 -110.421875 27.28125 C-110.08140137 26.54084473 -109.74092773 25.80043945 -109.39013672 25.03759766 C-106.25225644 18.51302467 -102.35096539 12.65221896 -97.046875 7.65625 C-96.386875 7.65625 -95.726875 7.65625 -95.046875 7.65625 C-94.81355469 7.07488281 -94.58023437 6.49351563 -94.33984375 5.89453125 C-88.83479038 -3.63536477 -73.71440906 -9.2287392 -63.57421875 -12.4453125 C-41.81610233 -17.79116429 -17.92072635 -13.78517411 0 0 Z " fill="#131A33" transform="translate(1402.046875,1156.34375)"/>
<path d="M0 0 C9.26301027 2.6806168 18.44284418 5.13142663 27.92822266 6.91699219 C32.70190744 7.83394581 37.42442962 8.96007973 42.15356445 10.08129883 C43.05359695 10.29386826 43.95362946 10.50643768 44.88093567 10.72544861 C48.59160439 11.60333367 52.30145169 12.48453206 56.00976562 13.37231445 C66.60538624 15.90428406 77.15507172 18.19814348 87.91601562 19.8972168 C94.07839502 20.8759304 100.21410663 22.00011272 106.3527832 23.11645508 C107.53547287 23.3313559 108.71816254 23.54625671 109.93669128 23.76766968 C112.3653646 24.20963718 114.79393725 24.6521582 117.22241211 25.09521484 C120.93613691 25.77260257 124.65029016 26.44760261 128.36450195 27.12231445 C130.7564545 27.55772144 133.14838247 27.9932635 135.5402832 28.42895508 C136.63526123 28.62795914 137.73023926 28.8269632 138.85839844 29.03199768 C141.87860523 29.58363716 144.89734907 30.14236769 147.9152832 30.70629883 C148.85044769 30.87969788 149.78561218 31.05309692 150.74911499 31.23175049 C151.62685577 31.3997113 152.50459656 31.56767212 153.40893555 31.74072266 C154.17346039 31.88576736 154.93798523 32.03081207 155.72567749 32.18025208 C159.53046456 33.09434171 163.00576662 34.68141063 166.5402832 36.33129883 C167.61729492 36.81856445 167.61729492 36.81856445 168.71606445 37.31567383 C170.45337979 38.10325678 172.18498906 38.903408 173.9152832 39.70629883 C173.9152832 40.36629883 173.9152832 41.02629883 173.9152832 41.70629883 C174.5752832 41.91254883 175.2352832 42.11879883 175.9152832 42.33129883 C183.87775087 45.98076318 188.95091633 51.64335868 193.9152832 58.70629883 C194.5030957 59.47200195 195.0909082 60.23770508 195.6965332 61.02661133 C206.1680251 75.67751446 209.25453187 95.0476191 207.3527832 112.64379883 C205.07254762 125.87218537 200.65625092 137.41397615 191.9152832 147.70629883 C191.02583008 148.85291992 191.02583008 148.85291992 190.1184082 150.02270508 C178.99707244 163.6867394 162.48904839 172.29570017 145.05102539 174.4140625 C132.20826324 175.61094714 120.37509395 173.70418275 107.7902832 171.39379883 C104.30929307 170.76829827 100.82712648 170.14949017 97.3449707 169.53051758 C96.4773259 169.37457626 95.60968109 169.21863495 94.71574402 169.05796814 C88.85231215 168.0140868 82.97928536 167.12131142 77.08325195 166.28442383 C65.72712381 164.64542975 54.55786092 162.21438389 43.3527832 159.76879883 C41.34053962 159.33396955 39.32816998 158.89972323 37.31567383 158.46606445 C34.34649653 157.82606313 31.37753236 157.18517807 28.40934753 156.54058838 C23.00870124 155.36809369 17.60370138 154.22146554 12.19186401 153.1018219 C3.97247944 151.39826632 -4.16139785 149.50251043 -12.2722168 147.33129883 C-14.60134095 146.71556848 -16.93077446 146.10100725 -19.26049805 145.48754883 C-20.97873779 145.03508789 -20.97873779 145.03508789 -22.73168945 144.57348633 C-25.85736548 143.76509829 -28.98852697 142.99165127 -32.12768555 142.23754883 C-43.33550779 139.54258807 -54.39161638 136.50401908 -65.3972168 133.08129883 C-67.19425049 132.52273193 -67.19425049 132.52273193 -69.02758789 131.95288086 C-81.11044034 128.1432166 -91.16598015 124.76797157 -101.0847168 116.70629883 C-101.94194336 116.02567383 -102.79916992 115.34504883 -103.68237305 114.64379883 C-118.93865668 101.81625896 -126.3790194 84.33535621 -128.0847168 64.70629883 C-128.15561523 63.96766602 -128.22651367 63.2290332 -128.29956055 62.46801758 C-129.1898436 43.55840561 -121.66603143 25.14003478 -109.39331055 11.21411133 C-105.33725921 6.81665722 -101.05771507 3.04056032 -96.0847168 -0.29370117 C-95.26358398 -0.85444336 -94.44245117 -1.41518555 -93.59643555 -1.99291992 C-64.2741293 -20.82668739 -30.43743477 -8.82393932 0 0 Z " fill="#131A33" transform="translate(413.084716796875,1520.293701171875)"/>
<path d="M0 0 C1.29067383 -0.01836914 1.29067383 -0.01836914 2.60742188 -0.03710938 C14.98800753 -0.06468306 26.20445518 3.06130906 37.91662598 6.69613647 C52.5748148 11.23187017 67.23574595 15.13548848 82.23046875 18.40576172 C86.20842578 19.30529692 90.16666539 20.27223158 94.125 21.25390625 C94.8551532 21.43434982 95.5853064 21.6147934 96.33758545 21.80070496 C99.23241936 22.51675957 102.12709343 23.23316337 105.01867676 23.96224976 C112.88270304 25.94315838 120.65768779 27.53794879 128.70898438 28.59277344 C137.64322605 29.85115808 146.47695071 31.88101245 155.3125 33.6875 C175.62670907 38.00874944 175.62670907 38.00874944 196.17749023 40.87036133 C217.02766736 42.86344883 234.59177887 52.34437341 248.24609375 68.19140625 C257.88671501 80.02237667 262.22660119 94.11183589 263.6875 109.1875 C263.7596875 109.92871094 263.831875 110.66992188 263.90625 111.43359375 C264.70244293 128.9830129 257.97396952 147.93540938 246.6875 161.1875 C245.6975 161.5175 244.7075 161.8475 243.6875 162.1875 C242.98470137 163.50214684 242.32140912 164.83828488 241.6875 166.1875 C232.57812035 177.03954358 215.35043675 184.30830378 201.6875 186.1875 C185.74645652 187.46331728 170.63247229 185.0203385 155.0625 181.875 C150.905009 181.05934294 146.74543182 180.25458631 142.5859375 179.44921875 C141.57383713 179.25070816 140.56173676 179.05219757 139.51896667 178.84767151 C133.1602378 177.61371748 126.80003584 176.56802986 120.38671875 175.6640625 C110.50307258 174.25858283 100.84252879 172.13999593 91.125 169.875 C89.36466693 169.4699854 87.60416605 169.06569957 85.84350586 168.66210938 C83.21379951 168.05928406 80.58420656 167.45602552 77.95527649 166.849823 C73.06343877 165.72329947 68.16698104 164.63047864 63.2578125 163.58203125 C49.45308819 160.63119408 35.86163868 157.15242507 22.2668457 153.36767578 C15.35404084 151.44504925 8.44984248 149.59246563 1.4375 148.0625 C-15.70303395 144.16289558 -35.4551137 138.81426054 -48.3125 126.1875 C-48.63992188 125.49914062 -48.96734375 124.81078125 -49.3046875 124.1015625 C-50.15077547 122.04344751 -50.15077547 122.04344751 -52.1640625 121.26171875 C-60.28867238 117.19941381 -65.1924607 105.30281084 -68.09375 97.12890625 C-75.1633856 75.35813799 -72.54362951 54.45650434 -62.3125 34.1875 C-60.57077451 31.20574169 -58.62398593 28.74285829 -56.3125 26.1875 C-55.25289063 24.88425781 -55.25289063 24.88425781 -54.171875 23.5546875 C-44.15914275 11.70090448 -28.49782162 1.73697541 -12.72216797 0.33325195 C-8.47941874 0.07662366 -4.24983674 0.00314105 0 0 Z " fill="#131A33" transform="translate(357.3125,841.8125)"/>
</svg>
