<?xml version="1.0" encoding="UTF-8"?>
<svg version="1.1" xmlns="http://www.w3.org/2000/svg" width="256" height="256">
<path d="M0 0 C0.70787659 0.00215515 1.41575317 0.0043103 2.14508057 0.00653076 C12.46529218 0.05697852 22.25394223 0.42670066 32.25 3.3125 C32.93562012 3.50054199 33.62124023 3.68858398 34.32763672 3.88232422 C66.26971266 12.79490789 94.24858344 33.77484506 111.25 62.3125 C117.21211729 73.08743754 121.97364178 84.44051964 125.25 96.3125 C125.56839844 97.42109375 125.88679687 98.5296875 126.21484375 99.671875 C130.59906988 118.17856228 130.5161117 142.07132981 125.25 160.3125 C125.06195801 160.99812012 124.87391602 161.68374023 124.68017578 162.39013672 C115.7750382 194.30552637 94.79309153 222.35416395 66.25 239.3125 C45.39335769 250.91383123 24.39061634 256.75590173 0.5 256.625 C-0.20787659 256.62284485 -0.91575317 256.6206897 -1.64508057 256.61846924 C-11.96529218 256.56802148 -21.75394223 256.19829934 -31.75 253.3125 C-32.43562012 253.12445801 -33.12124023 252.93641602 -33.82763672 252.74267578 C-67.66091213 243.30240338 -94.76869191 221.2179802 -112.25390625 191.046875 C-127.21493638 164.38248283 -132.91689973 129.90987077 -125.77734375 99.87109375 C-125.43832031 98.69675781 -125.09929687 97.52242188 -124.75 96.3125 C-124.46793701 95.28406982 -124.46793701 95.28406982 -124.18017578 94.23486328 C-115.2750382 62.31947363 -94.29309153 34.27083605 -65.75 17.3125 C-44.89335769 5.71116877 -23.89061634 -0.13090173 0 0 Z M-75.50390625 41.171875 C-77.75 43.3125 -77.75 43.3125 -80.69140625 45.671875 C-83.97109715 48.37944838 -86.53742711 51.45166734 -89.125 54.8125 C-89.59760254 55.42198486 -90.07020508 56.03146973 -90.55712891 56.65942383 C-110.0732981 82.24178639 -118.66661692 112.73088681 -114.46875 144.6796875 C-111.12084706 167.35326609 -101.54579039 186.82381525 -86.75 204.3125 C-86.23308594 204.97507813 -85.71617188 205.63765625 -85.18359375 206.3203125 C-67.64492665 228.03485272 -38.16125415 240.79983702 -10.96484375 243.71875 C19.65838315 246.43993124 49.23860757 237.44399314 73.140625 218.078125 C73.83671875 217.49546875 74.5328125 216.9128125 75.25 216.3125 C75.98734375 215.70921875 76.7246875 215.1059375 77.484375 214.484375 C99.91778334 195.4546562 113.26172578 166.47448612 115.84008789 137.45849609 C117.94461963 109.21600143 109.87044296 79.52004793 91.8515625 57.36328125 C89.69491515 54.96660837 87.48051716 52.63999617 85.25 50.3125 C84.46625 49.301875 83.6825 48.29125 82.875 47.25 C63.55899889 25.63447495 33.47019141 14.08843399 5.07275391 12.43579102 C-23.75066382 11.29411296 -54.49564884 20.95002295 -75.50390625 41.171875 Z " fill="#000000" transform="translate(127.75,-0.3125)"/>
<path d="M0 0 C1.66257954 1.28734303 1.66257954 1.28734303 3 3 C3.30988281 5.93580487 3.43744896 8.66381998 3.43237305 11.60229492 C3.44766052 12.91968407 3.44766052 12.91968407 3.46325684 14.26368713 C3.4934736 17.16934516 3.50266601 20.07467401 3.51171875 22.98046875 C3.528559 24.99401452 3.54670835 27.00754973 3.56611633 29.02107239 C3.61369344 34.32287295 3.64345293 39.62463072 3.66955566 44.92657471 C3.6993223 50.33590141 3.74586597 55.74508057 3.79101562 61.15429688 C3.87713647 71.7694542 3.94444268 82.38464181 4 93 C4.79881592 92.26177002 5.59763184 91.52354004 6.4206543 90.76293945 C7.49260546 89.77547705 8.56463093 88.78809529 9.63671875 87.80078125 C10.16036011 87.3164563 10.68400146 86.83213135 11.22351074 86.33312988 C15.52279326 82.37845266 19.96645277 78.66221589 24.53125 75.015625 C26.7161819 73.2317249 28.75735846 71.36644864 30.8125 69.4375 C33.21954948 67.35947167 33.9521863 67.00827545 37.25 66.4375 C40.2790605 67.05708056 41.27918385 67.46406041 43 70 C43.875 71.875 43.875 71.875 44 74 C39.3877074 83.13295024 29.56279518 89.41663604 21.75390625 95.71484375 C18.89917867 98.08366025 16.1656079 100.54926417 13.4375 103.0625 C8.47942283 107.62764598 3.32166338 111.86734167 -2 116 C-6.69678203 114.55283653 -9.67767177 111.78937174 -13.125 108.4375 C-18.04100407 103.77298967 -23.09016356 99.40018467 -28.375 95.15234375 C-31.90109943 92.26115211 -35.26986969 89.21493957 -38.6328125 86.13671875 C-41.51529064 83.53487792 -44.4939537 81.05824699 -47.50390625 78.60546875 C-49.25738039 76.72380329 -49.74220434 75.54762773 -50 73 C-48.85213059 70.75643706 -47.7904233 68.7904233 -46 67 C-41.89864139 66.40376725 -40.32616152 66.77344225 -36.87890625 69.16796875 C-35.76027154 70.15982598 -34.65544668 71.16740592 -33.5625 72.1875 C-32.34134659 73.28147414 -31.11998463 74.37521552 -29.8984375 75.46875 C-28.95049316 76.33113281 -28.95049316 76.33113281 -27.98339844 77.2109375 C-24.6018523 80.26115538 -21.13899201 83.21701158 -17.6875 86.1875 C-11.20112179 91.79887821 -11.20112179 91.79887821 -10 93 C-9.99413376 91.87913498 -9.98826752 90.75826996 -9.98222351 89.60343933 C-9.92507036 79.0527559 -9.85234778 68.50228005 -9.76428509 57.95180798 C-9.71951146 52.52737595 -9.68027083 47.10302025 -9.65356445 41.6784668 C-9.62760117 36.44582423 -9.5872485 31.21347429 -9.53681374 25.98101234 C-9.52009771 23.98231959 -9.50861302 21.98357618 -9.50238609 19.98482323 C-9.49279638 17.19033325 -9.46479921 14.39659998 -9.43237305 11.60229492 C-9.43380814 10.77151428 -9.43524323 9.94073364 -9.4367218 9.08477783 C-9.34377136 3.44022238 -9.34377136 3.44022238 -7.66257954 1.28734303 C-5.10005632 -0.69683055 -3.13465748 -0.39183219 0 0 Z " fill="#000000" transform="translate(131,71)"/>
</svg>
