<?xml version="1.0" encoding="UTF-8"?>
<svg version="1.1" xmlns="http://www.w3.org/2000/svg" width="512" height="512">
<path d="M0 0 C1.01823853 0.00215515 2.03647705 0.0043103 3.08557129 0.00653076 C17.7097884 0.05623391 32.00304638 0.37042012 46.375 3.3125 C47.37160645 3.50585938 48.36821289 3.69921875 49.39501953 3.8984375 C90.48382055 12.01721873 127.57799494 29.38665115 160.375 55.3125 C161.41269531 56.12460937 162.45039063 56.93671875 163.51953125 57.7734375 C179.09053025 70.44611191 193.63804845 85.00657313 205.375 101.3125 C206.22676801 102.45914872 207.07965463 103.60496725 207.93359375 104.75 C213.98103133 112.94160202 219.36598412 121.45153398 224.375 130.3125 C224.7771875 131.01971191 225.179375 131.72692383 225.59375 132.45556641 C240.31504051 158.60310856 250.01421333 187.62416442 254.375 217.3125 C254.55232666 218.51712891 254.72965332 219.72175781 254.91235352 220.96289062 C256.511325 232.62017354 256.7334053 244.18436098 256.6875 255.9375 C256.68476578 257.39233292 256.68476578 257.39233292 256.68197632 258.8765564 C256.63658309 273.22806055 256.1312347 287.19192918 253.375 301.3125 C253.21402832 302.20952637 253.05305664 303.10655273 252.88720703 304.03076172 C242.06462011 363.84088904 208.00685543 421.35495829 159.375 458.3125 C158.83472168 458.72918945 158.29444336 459.14587891 157.73779297 459.57519531 C147.7427884 467.2584873 137.28290964 474.00092968 126.375 480.3125 C125.69775879 480.70679199 125.02051758 481.10108398 124.32275391 481.50732422 C98.40376191 496.41535371 68.91148362 505.97401819 39.375 510.3125 C38.17037109 510.48982666 36.96574219 510.66715332 35.72460938 510.84985352 C24.0673269 512.44882494 12.50313934 512.67090972 0.75 512.625 C-0.21955627 512.62317719 -1.18911255 512.62135437 -2.18804932 512.61947632 C-16.51979259 512.57412737 -30.53395512 512.15545422 -44.625 509.3125 C-45.52686035 509.13557617 -46.4287207 508.95865234 -47.35791016 508.77636719 C-53.83082573 507.47752189 -60.23520862 505.97073805 -66.625 504.3125 C-67.45563965 504.09754883 -68.2862793 503.88259766 -69.14208984 503.66113281 C-109.61050039 492.92838092 -146.54181601 471.28690378 -176.625 442.3125 C-177.28435547 441.68037598 -177.94371094 441.04825195 -178.62304688 440.39697266 C-188.11382 431.25009947 -196.83820776 421.94804306 -204.625 411.3125 C-205.44744754 410.21969886 -206.27036382 409.12725034 -207.09375 408.03515625 C-236.3702556 368.67947402 -255.58162547 318.46118898 -255.828125 269.08203125 C-255.83871445 267.66469948 -255.83871445 267.66469948 -255.84951782 266.21873474 C-256.07545553 227.11525741 -256.07545553 227.11525741 -252.625 210.3125 C-252.42632324 209.29994141 -252.22764648 208.28738281 -252.02294922 207.24414062 C-242.60716498 160.15816641 -221.02340662 117.28185007 -188.23828125 82.171875 C-186.43090247 80.19429463 -184.71108028 78.2258346 -183.01953125 76.15625 C-181.09327842 73.86862837 -179.27918745 71.97018994 -177 70.0625 C-173.76425696 67.31482993 -170.65689284 64.46837856 -167.5625 61.5625 C-135.32882323 32.29131478 -93.69675137 13.58620942 -51.4375 4.5625 C-50.51267822 4.36366211 -49.58785645 4.16482422 -48.63500977 3.95996094 C-32.4283142 0.66808618 -16.49462039 -0.06280274 0 0 Z M-82.625 151.3125 C-81.35188871 155.13183387 -80.2891769 158.23020754 -78.51080322 161.71411133 C-78.09287003 162.53827545 -77.67493683 163.36243958 -77.24433899 164.21157837 C-76.79020126 165.09695282 -76.33606354 165.98232727 -75.86816406 166.89453125 C-75.38673447 167.84161957 -74.90530487 168.78870789 -74.4092865 169.76449585 C-73.36702964 171.81469198 -72.32314346 173.86406047 -71.27780914 175.91268921 C-69.0585833 180.26702111 -66.85422054 184.62881366 -64.64899826 188.99024963 C-60.54514964 197.10644867 -56.43542977 205.21952381 -52.29931641 213.31933594 C-49.4203762 218.95861052 -46.56094795 224.60739823 -43.7142868 230.26303101 C-42.62580084 232.41648265 -41.53005973 234.56628281 -40.42700958 236.71231079 C-38.88756628 239.70940228 -37.37328997 242.7179782 -35.86425781 245.73046875 C-35.40202316 246.6158432 -34.93978851 247.50121765 -34.46354675 248.41342163 C-31.49533993 254.42907664 -31.49533993 254.42907664 -32.06472778 258.30853271 C-32.57961761 259.29984192 -33.09450745 260.29115112 -33.625 261.3125 C-33.94967506 261.99756371 -34.27435013 262.68262741 -34.60886383 263.38845062 C-35.81671898 265.93266844 -37.07894906 268.44483357 -38.35009766 270.95800781 C-38.82831467 271.9115213 -39.30653168 272.86503479 -39.79924011 273.84744263 C-40.83473481 275.91083876 -41.87207649 277.97330881 -42.91106033 280.03495026 C-44.55324642 283.29377216 -46.19040464 286.55507547 -47.82626343 289.81707764 C-51.29637545 296.73446648 -54.77275038 303.64869695 -58.25 310.5625 C-62.28592076 318.58721073 -66.31929408 326.61318011 -70.34595871 334.64253998 C-71.96255418 337.86272109 -73.58393124 341.08046513 -75.20547485 344.29815674 C-76.19011525 346.26017674 -77.1745331 348.22230845 -78.15869141 350.18457031 C-78.6137355 351.08432587 -79.0687796 351.98408142 -79.53761292 352.91110229 C-79.94701614 353.72976776 -80.35641937 354.54843323 -80.77822876 355.39190674 C-81.13697397 356.10495594 -81.49571918 356.81800514 -81.86533546 357.5526619 C-82.75710642 359.299071 -82.75710642 359.299071 -82.625 361.3125 C-30.485 361.3125 21.655 361.3125 75.375 361.3125 C75.375 341.8425 75.375 322.3725 75.375 302.3125 C65.805 302.3125 56.235 302.3125 46.375 302.3125 C46.375 312.2125 46.375 322.1125 46.375 332.3125 C19.315 332.3125 -7.745 332.3125 -35.625 332.3125 C-23.21414254 306.36252531 -23.21414254 306.36252531 -17.79296875 295.90234375 C-16.63372226 293.63529884 -15.475546 291.36770641 -14.31835938 289.09960938 C-12.54818607 285.63396095 -10.77200241 282.17202879 -8.97827148 278.71850586 C-7.21057882 275.3097054 -5.46841139 271.88888576 -3.73046875 268.46484375 C-3.18593552 267.43052719 -2.64140228 266.39621063 -2.08036804 265.33055115 C-1.59518204 264.36416214 -1.10999603 263.39777313 -0.61010742 262.40209961 C-0.17695724 261.56102158 0.25619293 260.71994354 0.70246887 259.8533783 C2.14336463 254.4095548 -1.53070872 249.22113278 -3.95727539 244.43676758 C-4.45273613 243.44781746 -4.45273613 243.44781746 -4.95820618 242.43888855 C-6.04267656 240.27639959 -7.13270148 238.11676032 -8.22265625 235.95703125 C-8.98009882 234.44842167 -9.73712689 232.93960391 -10.49375916 231.43058777 C-12.48082155 227.46972976 -14.47233321 223.51112754 -16.46514893 219.55316162 C-19.65918217 213.20831593 -22.84777498 206.86074136 -26.03381157 200.51187706 C-27.14702393 198.29567529 -28.26295558 196.0808583 -29.37916565 193.86616516 C-30.06024204 192.51083922 -30.74123128 191.15546949 -31.42211914 189.80004883 C-31.73330688 189.18441071 -32.04449463 188.56877258 -32.3651123 187.93447876 C-33.62980132 185.41183674 -34.73072601 182.99532196 -35.625 180.3125 C-8.565 180.3125 18.495 180.3125 46.375 180.3125 C46.375 190.2125 46.375 200.1125 46.375 210.3125 C55.945 210.3125 65.515 210.3125 75.375 210.3125 C75.375 190.8425 75.375 171.3725 75.375 151.3125 C23.235 151.3125 -28.905 151.3125 -82.625 151.3125 Z " fill="#000000" transform="translate(255.625,-0.3125)"/>
</svg>
